<?xml version="1.0" encoding="UTF-8"?>
<svg xmlns="http://www.w3.org/2000/svg" viewBox="0 0 1600 560" role="img" aria-labelledby="title-ii-3-experiencias-digitales-semantic desc-ii-3-experiencias-digitales-semantic">
  <title id="title-ii-3-experiencias-digitales-semantic">DC II · semantic graphic</title>
  <desc id="desc-ii-3-experiencias-digitales-semantic">Semantic hexagonal diagram linking the master idea &quot;A digital experience is an audience relation&quot; with the field lens &quot;Audience journey&quot;.</desc>
  <defs>
    <linearGradient id="semantic-ground-ii-3-experiencias-digitales" x1="0" y1="0" x2="1" y2="1">
      <stop offset="0" stop-color="#121A2E"/>
      <stop offset="1" stop-color="#070A11"/>
    </linearGradient>
  </defs>
  <rect width="1600" height="560" fill="url(#semantic-ground-ii-3-experiencias-digitales)"/>
  <g aria-hidden="true"><line x1="430.00" y1="231.23" x2="468.00" y2="204.68" stroke="#FF82A7" stroke-opacity="0.100" stroke-width="2"/><line x1="505.45" y1="366.40" x2="543.45" y2="227.85" stroke="#E7FF79" stroke-opacity="0.118" stroke-width="2"/><line x1="521.57" y1="185.73" x2="559.57" y2="301.16" stroke="#AF89FF" stroke-opacity="0.133" stroke-width="2"/><line x1="529.31" y1="349.68" x2="567.31" y2="253.38" stroke="#FF82A7" stroke-opacity="0.147" stroke-width="2"/><line x1="595.18" y1="258.91" x2="633.18" y2="236.29" stroke="#AF89FF" stroke-opacity="0.158" stroke-width="2"/><line x1="677.66" y1="245.24" x2="715.66" y2="311.73" stroke="#E7FF79" stroke-opacity="0.166" stroke-width="2"/><line x1="704.36" y1="358.64" x2="742.36" y2="356.73" stroke="#FF82A7" stroke-opacity="0.173" stroke-width="2"/><line x1="706.56" y1="184.56" x2="744.56" y2="253.25" stroke="#E7FF79" stroke-opacity="0.178" stroke-width="2"/><line x1="761.06" y1="359.37" x2="799.06" y2="346.76" stroke="#AF89FF" stroke-opacity="0.180" stroke-width="2"/><line x1="847.49" y1="244.03" x2="885.49" y2="220.39" stroke="#FF82A7" stroke-opacity="0.180" stroke-width="2"/><line x1="886.10" y1="260.19" x2="924.10" y2="209.15" stroke="#AF89FF" stroke-opacity="0.178" stroke-width="2"/><line x1="886.05" y1="348.78" x2="924.05" y2="218.58" stroke="#E7FF79" stroke-opacity="0.173" stroke-width="2"/><line x1="928.32" y1="185.94" x2="966.32" y2="337.36" stroke="#FF82A7" stroke-opacity="0.166" stroke-width="2"/><line x1="1015.26" y1="366.95" x2="1053.26" y2="320.10" stroke="#E7FF79" stroke-opacity="0.158" stroke-width="2"/><line x1="1066.18" y1="230.11" x2="1104.18" y2="231.11" stroke="#AF89FF" stroke-opacity="0.147" stroke-width="2"/><line x1="1067.35" y1="275.66" x2="1105.35" y2="203.32" stroke="#FF82A7" stroke-opacity="0.133" stroke-width="2"/><line x1="1097.49" y1="337.08" x2="1135.49" y2="256.20" stroke="#AF89FF" stroke-opacity="0.118" stroke-width="2"/><line x1="1181.49" y1="189.84" x2="1219.49" y2="331.71" stroke="#E7FF79" stroke-opacity="0.100" stroke-width="2"/></g>
  <g aria-hidden="true"><polygon points="448.64,241.99 430.00,252.75 411.36,241.99 411.36,220.46 430.00,209.70 448.64,220.46" fill="#FF82A7" fill-opacity="0.222" stroke="#FF82A7" stroke-opacity="0.55" stroke-width="1.1"/><polygon points="527.92,379.37 505.45,392.35 482.98,379.37 482.98,353.42 505.45,340.45 527.92,353.42" fill="#E7FF79" fill-opacity="0.462" stroke="#E7FF79" stroke-opacity="0.55" stroke-width="1.1"/><polygon points="534.10,192.96 521.57,200.19 509.05,192.96 509.05,178.50 521.57,171.27 534.10,178.50" fill="#AF89FF" fill-opacity="0.416" stroke="#AF89FF" stroke-opacity="0.55" stroke-width="1.1"/><polygon points="548.99,361.05 529.31,372.41 509.62,361.05 509.62,338.31 529.31,326.95 548.99,338.31" fill="#FF82A7" fill-opacity="0.452" stroke="#FF82A7" stroke-opacity="0.55" stroke-width="1.1"/><polygon points="613.21,269.32 595.18,279.73 577.14,269.32 577.14,248.49 595.18,238.08 613.21,248.49" fill="#AF89FF" fill-opacity="0.309" stroke="#AF89FF" stroke-opacity="0.55" stroke-width="1.1"/><polygon points="697.86,256.90 677.66,268.56 657.47,256.90 657.47,233.58 677.66,221.93 697.86,233.58" fill="#E7FF79" fill-opacity="0.220" stroke="#E7FF79" stroke-opacity="0.55" stroke-width="1.1"/><polygon points="717.11,365.99 704.36,373.35 691.62,365.99 691.62,351.28 704.36,343.92 717.11,351.28" fill="#FF82A7" fill-opacity="0.291" stroke="#FF82A7" stroke-opacity="0.55" stroke-width="1.1"/><polygon points="716.03,190.03 706.56,195.50 697.08,190.03 697.08,179.09 706.56,173.62 716.03,179.09" fill="#E7FF79" fill-opacity="0.290" stroke="#E7FF79" stroke-opacity="0.55" stroke-width="1.1"/><polygon points="782.66,371.84 761.06,384.31 739.47,371.84 739.47,346.90 761.06,334.43 782.66,346.90" fill="#AF89FF" fill-opacity="0.492" stroke="#AF89FF" stroke-opacity="0.55" stroke-width="1.1"/><polygon points="858.40,250.33 847.49,256.63 836.57,250.33 836.57,237.72 847.49,231.42 858.40,237.72" fill="#FF82A7" fill-opacity="0.351" stroke="#FF82A7" stroke-opacity="0.55" stroke-width="1.1"/><polygon points="899.91,268.16 886.10,276.13 872.30,268.16 872.30,252.22 886.10,244.24 899.91,252.22" fill="#AF89FF" fill-opacity="0.238" stroke="#AF89FF" stroke-opacity="0.55" stroke-width="1.1"/><polygon points="895.69,354.34 886.05,359.91 876.40,354.34 876.40,343.21 886.05,337.64 895.69,343.21" fill="#E7FF79" fill-opacity="0.210" stroke="#E7FF79" stroke-opacity="0.55" stroke-width="1.1"/><polygon points="938.80,192.00 928.32,198.05 917.84,192.00 917.84,179.89 928.32,173.84 938.80,179.89" fill="#FF82A7" fill-opacity="0.210" stroke="#FF82A7" stroke-opacity="0.55" stroke-width="1.1"/><polygon points="1024.24,372.13 1015.26,377.32 1006.27,372.13 1006.27,361.76 1015.26,356.57 1024.24,361.76" fill="#E7FF79" fill-opacity="0.185" stroke="#E7FF79" stroke-opacity="0.55" stroke-width="1.1"/><polygon points="1076.16,235.86 1066.18,241.62 1056.21,235.86 1056.21,224.35 1066.18,218.59 1076.16,224.35" fill="#AF89FF" fill-opacity="0.376" stroke="#AF89FF" stroke-opacity="0.55" stroke-width="1.1"/><polygon points="1084.41,285.51 1067.35,295.36 1050.29,285.51 1050.29,265.81 1067.35,255.96 1084.41,265.81" fill="#FF82A7" fill-opacity="0.330" stroke="#FF82A7" stroke-opacity="0.55" stroke-width="1.1"/><polygon points="1115.43,347.43 1097.49,357.79 1079.56,347.43 1079.56,326.72 1097.49,316.37 1115.43,326.72" fill="#AF89FF" fill-opacity="0.324" stroke="#AF89FF" stroke-opacity="0.55" stroke-width="1.1"/><polygon points="1197.17,198.89 1181.49,207.94 1165.81,198.89 1165.81,180.79 1181.49,171.74 1197.17,180.79" fill="#E7FF79" fill-opacity="0.409" stroke="#E7FF79" stroke-opacity="0.55" stroke-width="1.1"/></g>
  <g transform="translate(420 280)">
    <polygon points="102.19,59.00 0.00,118.00 -102.19,59.00 -102.19,-59.00 -0.00,-118.00 102.19,-59.00" fill="#E7FF79" fill-opacity="0.24" stroke="#E7FF79" stroke-opacity="0.9" stroke-width="2.4"/>
    <text x="0" y="-20" text-anchor="middle" fill="#F8F6ED" font-family="ui-monospace, SFMono-Regular, Menlo, monospace" font-size="18" font-weight="500" letter-spacing="2" opacity="0.88">MASTER IDEA</text>
    <g class="semantic-callout semantic-callout--above">
    <rect x="-189.00" y="-219.00" width="378.00" height="100.00" rx="18" fill="#121A2E" fill-opacity="0.88" stroke="#E7FF79" stroke-opacity="0.78" stroke-width="1.4"/>
    <text text-anchor="middle" fill="#F8F6ED" font-family="Inter, ui-sans-serif, system-ui, sans-serif" font-size="25" font-weight="400"><tspan x="0" y="-199">A digital experience is</tspan><tspan x="0" y="-163">an audience relation</tspan></text>
  </g>
  </g>
  <g transform="translate(1180 280)">
    <polygon points="102.19,59.00 0.00,118.00 -102.19,59.00 -102.19,-59.00 -0.00,-118.00 102.19,-59.00" fill="#AF89FF" fill-opacity="0.24" stroke="#AF89FF" stroke-opacity="0.9" stroke-width="2.4"/>
    <text x="0" y="-20" text-anchor="middle" fill="#F8F6ED" font-family="ui-monospace, SFMono-Regular, Menlo, monospace" font-size="18" font-weight="500" letter-spacing="2" opacity="0.88">FIELD LENS</text>
    <g class="semantic-callout semantic-callout--above">
    <rect x="-162.40" y="-202.00" width="324.80" height="66.00" rx="18" fill="#121A2E" fill-opacity="0.88" stroke="#AF89FF" stroke-opacity="0.78" stroke-width="1.4"/>
    <text text-anchor="middle" fill="#F8F6ED" font-family="Inter, ui-sans-serif, system-ui, sans-serif" font-size="30" font-weight="400"><tspan x="0" y="-164">Audience journey</tspan></text>
  </g>
  </g>
  <g transform="translate(800 160)">
    <polygon points="62.35,36.00 0.00,72.00 -62.35,36.00 -62.35,-36.00 -0.00,-72.00 62.35,-36.00" fill="#FF82A7" fill-opacity="0.24" stroke="#FF82A7" stroke-opacity="0.9" stroke-width="2.4"/>
    <text x="0" y="-20" text-anchor="middle" fill="#F8F6ED" font-family="ui-monospace, SFMono-Regular, Menlo, monospace" font-size="18" font-weight="500" letter-spacing="2" opacity="0.88">PATH</text>
    <g class="semantic-callout semantic-callout--above">
    <rect x="-154.00" y="-156.00" width="308.00" height="66.00" rx="18" fill="#121A2E" fill-opacity="0.88" stroke="#FF82A7" stroke-opacity="0.78" stroke-width="1.4"/>
    <text text-anchor="middle" fill="#F8F6ED" font-family="Inter, ui-sans-serif, system-ui, sans-serif" font-size="30" font-weight="400"><tspan x="0" y="-118">studio decision</tspan></text>
  </g>
  </g>
  <g transform="translate(800 400)">
    <polygon points="62.35,36.00 0.00,72.00 -62.35,36.00 -62.35,-36.00 -0.00,-72.00 62.35,-36.00" fill="#F8F6ED" fill-opacity="0.88" stroke="#F8F6ED" stroke-opacity="0.9" stroke-width="2.4"/>
    <text x="0" y="-20" text-anchor="middle" fill="#121A2E" font-family="ui-monospace, SFMono-Regular, Menlo, monospace" font-size="18" font-weight="500" letter-spacing="2" opacity="0.88">EVIDENCE</text>
    <g class="semantic-callout semantic-callout--above">
    <rect x="-137.20" y="-156.00" width="274.40" height="66.00" rx="18" fill="#F8F6ED" fill-opacity="0.88" stroke="#F8F6ED" stroke-opacity="0.78" stroke-width="1.4"/>
    <text text-anchor="middle" fill="#121A2E" font-family="Inter, ui-sans-serif, system-ui, sans-serif" font-size="30" font-weight="400"><tspan x="0" y="-118">process trace</tspan></text>
  </g>
  </g>
</svg>