<?xml version="1.0" encoding="UTF-8"?>
<svg xmlns="http://www.w3.org/2000/svg" viewBox="0 0 1600 560" role="img" aria-labelledby="title-ii-5-web-portfolio-semantic desc-ii-5-web-portfolio-semantic">
  <title id="title-ii-5-web-portfolio-semantic">DC II · semantic graphic</title>
  <desc id="desc-ii-5-web-portfolio-semantic">Semantic hexagonal diagram linking the master idea &quot;A portfolio is evidence of authorship&quot; with the field lens &quot;Inspectable evidence&quot;.</desc>
  <defs>
    <linearGradient id="semantic-ground-ii-5-web-portfolio" x1="0" y1="0" x2="1" y2="1">
      <stop offset="0" stop-color="#121A2E"/>
      <stop offset="1" stop-color="#070A11"/>
    </linearGradient>
  </defs>
  <rect width="1600" height="560" fill="url(#semantic-ground-ii-5-web-portfolio)"/>
  <g aria-hidden="true"><line x1="430.00" y1="235.25" x2="468.00" y2="245.75" stroke="#FF82A7" stroke-opacity="0.100" stroke-width="2"/><line x1="498.99" y1="368.96" x2="536.99" y2="271.05" stroke="#E7FF79" stroke-opacity="0.118" stroke-width="2"/><line x1="547.91" y1="208.88" x2="585.91" y2="255.03" stroke="#AF89FF" stroke-opacity="0.133" stroke-width="2"/><line x1="572.51" y1="283.66" x2="610.51" y2="296.04" stroke="#FF82A7" stroke-opacity="0.147" stroke-width="2"/><line x1="587.71" y1="346.34" x2="625.71" y2="203.44" stroke="#AF89FF" stroke-opacity="0.158" stroke-width="2"/><line x1="615.85" y1="189.93" x2="653.85" y2="258.69" stroke="#E7FF79" stroke-opacity="0.166" stroke-width="2"/><line x1="669.06" y1="330.97" x2="707.06" y2="279.35" stroke="#FF82A7" stroke-opacity="0.173" stroke-width="2"/><line x1="739.70" y1="303.68" x2="777.70" y2="302.14" stroke="#E7FF79" stroke-opacity="0.178" stroke-width="2"/><line x1="806.41" y1="198.18" x2="844.41" y2="344.57" stroke="#AF89FF" stroke-opacity="0.180" stroke-width="2"/><line x1="850.90" y1="362.88" x2="888.90" y2="200.96" stroke="#FF82A7" stroke-opacity="0.180" stroke-width="2"/><line x1="872.43" y1="253.87" x2="910.43" y2="359.80" stroke="#AF89FF" stroke-opacity="0.178" stroke-width="2"/><line x1="888.33" y1="231.16" x2="926.33" y2="321.27" stroke="#E7FF79" stroke-opacity="0.173" stroke-width="2"/><line x1="920.38" y1="369.75" x2="958.38" y2="233.25" stroke="#FF82A7" stroke-opacity="0.166" stroke-width="2"/><line x1="977.65" y1="211.95" x2="1015.65" y2="353.35" stroke="#E7FF79" stroke-opacity="0.158" stroke-width="2"/><line x1="1049.28" y1="278.89" x2="1087.28" y2="206.60" stroke="#AF89FF" stroke-opacity="0.147" stroke-width="2"/><line x1="1113.14" y1="349.51" x2="1151.14" y2="275.24" stroke="#FF82A7" stroke-opacity="0.133" stroke-width="2"/><line x1="1153.19" y1="190.59" x2="1191.19" y2="302.76" stroke="#AF89FF" stroke-opacity="0.118" stroke-width="2"/><line x1="1172.17" y1="326.95" x2="1210.17" y2="257.05" stroke="#E7FF79" stroke-opacity="0.100" stroke-width="2"/></g>
  <g aria-hidden="true"><polygon points="440.21,241.14 430.00,247.03 419.79,241.14 419.79,229.36 430.00,223.46 440.21,229.36" fill="#FF82A7" fill-opacity="0.275" stroke="#FF82A7" stroke-opacity="0.55" stroke-width="1.1"/><polygon points="517.27,379.51 498.99,390.07 480.71,379.51 480.71,358.41 498.99,347.85 517.27,358.41" fill="#E7FF79" fill-opacity="0.449" stroke="#E7FF79" stroke-opacity="0.55" stroke-width="1.1"/><polygon points="560.38,216.09 547.91,223.29 535.43,216.09 535.43,201.68 547.91,194.48 560.38,201.68" fill="#AF89FF" fill-opacity="0.351" stroke="#AF89FF" stroke-opacity="0.55" stroke-width="1.1"/><polygon points="594.22,296.20 572.51,308.74 550.79,296.20 550.79,271.13 572.51,258.59 594.22,271.13" fill="#FF82A7" fill-opacity="0.457" stroke="#FF82A7" stroke-opacity="0.55" stroke-width="1.1"/><polygon points="608.58,358.39 587.71,370.45 566.83,358.39 566.83,334.29 587.71,322.24 608.58,334.29" fill="#AF89FF" fill-opacity="0.331" stroke="#AF89FF" stroke-opacity="0.55" stroke-width="1.1"/><polygon points="635.23,201.11 615.85,212.30 596.47,201.11 596.47,178.74 615.85,167.55 635.23,178.74" fill="#E7FF79" fill-opacity="0.224" stroke="#E7FF79" stroke-opacity="0.55" stroke-width="1.1"/><polygon points="689.00,342.49 669.06,354.00 649.12,342.49 649.12,319.46 669.06,307.95 689.00,319.46" fill="#FF82A7" fill-opacity="0.382" stroke="#FF82A7" stroke-opacity="0.55" stroke-width="1.1"/><polygon points="754.02,311.94 739.70,320.21 725.39,311.94 725.39,295.42 739.70,287.15 754.02,295.42" fill="#E7FF79" fill-opacity="0.247" stroke="#E7FF79" stroke-opacity="0.55" stroke-width="1.1"/><polygon points="820.63,206.39 806.41,214.61 792.19,206.39 792.19,189.97 806.41,181.76 820.63,189.97" fill="#AF89FF" fill-opacity="0.243" stroke="#AF89FF" stroke-opacity="0.55" stroke-width="1.1"/><polygon points="873.09,375.69 850.90,388.50 828.72,375.69 828.72,350.08 850.90,337.27 873.09,350.08" fill="#FF82A7" fill-opacity="0.346" stroke="#FF82A7" stroke-opacity="0.55" stroke-width="1.1"/><polygon points="887.26,262.43 872.43,270.99 857.59,262.43 857.59,245.30 872.43,236.74 887.26,245.30" fill="#AF89FF" fill-opacity="0.209" stroke="#AF89FF" stroke-opacity="0.55" stroke-width="1.1"/><polygon points="907.99,242.51 888.33,253.87 868.66,242.51 868.66,219.80 888.33,208.44 907.99,219.80" fill="#E7FF79" fill-opacity="0.219" stroke="#E7FF79" stroke-opacity="0.55" stroke-width="1.1"/><polygon points="938.24,380.06 920.38,390.37 902.53,380.06 902.53,359.44 920.38,349.13 938.24,359.44" fill="#FF82A7" fill-opacity="0.414" stroke="#FF82A7" stroke-opacity="0.55" stroke-width="1.1"/><polygon points="995.26,222.12 977.65,232.29 960.03,222.12 960.03,201.78 977.65,191.61 995.26,201.78" fill="#E7FF79" fill-opacity="0.259" stroke="#E7FF79" stroke-opacity="0.55" stroke-width="1.1"/><polygon points="1059.07,284.53 1049.28,290.18 1039.50,284.53 1039.50,273.24 1049.28,267.59 1059.07,273.24" fill="#AF89FF" fill-opacity="0.257" stroke="#AF89FF" stroke-opacity="0.55" stroke-width="1.1"/><polygon points="1133.99,361.54 1113.14,373.58 1092.29,361.54 1092.29,337.47 1113.14,325.43 1133.99,337.47" fill="#FF82A7" fill-opacity="0.416" stroke="#FF82A7" stroke-opacity="0.55" stroke-width="1.1"/><polygon points="1169.30,199.89 1153.19,209.19 1137.08,199.89 1137.08,181.28 1153.19,171.98 1169.30,181.28" fill="#AF89FF" fill-opacity="0.356" stroke="#AF89FF" stroke-opacity="0.55" stroke-width="1.1"/><polygon points="1190.78,337.69 1172.17,348.43 1153.57,337.69 1153.57,316.21 1172.17,305.47 1190.78,316.21" fill="#E7FF79" fill-opacity="0.484" stroke="#E7FF79" stroke-opacity="0.55" stroke-width="1.1"/></g>
  <g transform="translate(420 280)">
    <polygon points="102.19,59.00 0.00,118.00 -102.19,59.00 -102.19,-59.00 -0.00,-118.00 102.19,-59.00" fill="#E7FF79" fill-opacity="0.24" stroke="#E7FF79" stroke-opacity="0.9" stroke-width="2.4"/>
    <text x="0" y="-20" text-anchor="middle" fill="#F8F6ED" font-family="ui-monospace, SFMono-Regular, Menlo, monospace" font-size="18" font-weight="500" letter-spacing="2" opacity="0.88">MASTER IDEA</text>
    <g class="semantic-callout semantic-callout--above">
    <rect x="-189.00" y="-219.00" width="378.00" height="100.00" rx="18" fill="#121A2E" fill-opacity="0.88" stroke="#E7FF79" stroke-opacity="0.78" stroke-width="1.4"/>
    <text text-anchor="middle" fill="#F8F6ED" font-family="Inter, ui-sans-serif, system-ui, sans-serif" font-size="25" font-weight="400"><tspan x="0" y="-199">A portfolio is evidence</tspan><tspan x="0" y="-163">of authorship</tspan></text>
  </g>
  </g>
  <g transform="translate(1180 280)">
    <polygon points="102.19,59.00 0.00,118.00 -102.19,59.00 -102.19,-59.00 -0.00,-118.00 102.19,-59.00" fill="#AF89FF" fill-opacity="0.24" stroke="#AF89FF" stroke-opacity="0.9" stroke-width="2.4"/>
    <text x="0" y="-20" text-anchor="middle" fill="#F8F6ED" font-family="ui-monospace, SFMono-Regular, Menlo, monospace" font-size="18" font-weight="500" letter-spacing="2" opacity="0.88">FIELD LENS</text>
    <g class="semantic-callout semantic-callout--above">
    <rect x="-196.00" y="-202.00" width="392.00" height="66.00" rx="18" fill="#121A2E" fill-opacity="0.88" stroke="#AF89FF" stroke-opacity="0.78" stroke-width="1.4"/>
    <text text-anchor="middle" fill="#F8F6ED" font-family="Inter, ui-sans-serif, system-ui, sans-serif" font-size="30" font-weight="400"><tspan x="0" y="-164">Inspectable evidence</tspan></text>
  </g>
  </g>
  <g transform="translate(800 160)">
    <polygon points="62.35,36.00 0.00,72.00 -62.35,36.00 -62.35,-36.00 -0.00,-72.00 62.35,-36.00" fill="#FF82A7" fill-opacity="0.88" stroke="#FF82A7" stroke-opacity="0.9" stroke-width="2.4"/>
    <text x="0" y="-20" text-anchor="middle" fill="#121A2E" font-family="ui-monospace, SFMono-Regular, Menlo, monospace" font-size="18" font-weight="500" letter-spacing="2" opacity="0.88">EVIDENCE</text>
    <g class="semantic-callout semantic-callout--above">
    <rect x="-154.00" y="-156.00" width="308.00" height="66.00" rx="18" fill="#F8F6ED" fill-opacity="0.88" stroke="#FF82A7" stroke-opacity="0.78" stroke-width="1.4"/>
    <text text-anchor="middle" fill="#121A2E" font-family="Inter, ui-sans-serif, system-ui, sans-serif" font-size="30" font-weight="400"><tspan x="0" y="-118">studio decision</tspan></text>
  </g>
  </g>
  <g transform="translate(800 400)">
    <polygon points="62.35,36.00 0.00,72.00 -62.35,36.00 -62.35,-36.00 -0.00,-72.00 62.35,-36.00" fill="#F8F6ED" fill-opacity="0.88" stroke="#F8F6ED" stroke-opacity="0.9" stroke-width="2.4"/>
    <text x="0" y="-20" text-anchor="middle" fill="#121A2E" font-family="ui-monospace, SFMono-Regular, Menlo, monospace" font-size="18" font-weight="500" letter-spacing="2" opacity="0.88">EVIDENCE</text>
    <g class="semantic-callout semantic-callout--above">
    <rect x="-137.20" y="-156.00" width="274.40" height="66.00" rx="18" fill="#F8F6ED" fill-opacity="0.88" stroke="#F8F6ED" stroke-opacity="0.78" stroke-width="1.4"/>
    <text text-anchor="middle" fill="#121A2E" font-family="Inter, ui-sans-serif, system-ui, sans-serif" font-size="30" font-weight="400"><tspan x="0" y="-118">process trace</tspan></text>
  </g>
  </g>
</svg>