<?xml version="1.0" encoding="UTF-8"?>
<svg xmlns="http://www.w3.org/2000/svg" viewBox="0 0 1600 560" role="img" aria-labelledby="title-i-7-referencias-moda-semantic desc-i-7-referencias-moda-semantic">
  <title id="title-i-7-referencias-moda-semantic">DC I · semantic graphic</title>
  <desc id="desc-i-7-referencias-moda-semantic">Semantic hexagonal diagram linking the master idea &quot;Reference is situated recontextualisation&quot; with the field lens &quot;Provenance field&quot;.</desc>
  <defs>
    <linearGradient id="semantic-ground-i-7-referencias-moda" x1="0" y1="0" x2="1" y2="1">
      <stop offset="0" stop-color="#18141D"/>
      <stop offset="1" stop-color="#070A11"/>
    </linearGradient>
  </defs>
  <rect width="1600" height="560" fill="url(#semantic-ground-i-7-referencias-moda)"/>
  <g aria-hidden="true"><line x1="430.00" y1="187.38" x2="468.00" y2="267.27" stroke="#9BE2D1" stroke-opacity="0.100" stroke-width="2"/><line x1="494.63" y1="331.95" x2="532.63" y2="276.11" stroke="#E8C56C" stroke-opacity="0.118" stroke-width="2"/><line x1="548.79" y1="321.06" x2="586.79" y2="257.16" stroke="#F07C63" stroke-opacity="0.133" stroke-width="2"/><line x1="587.19" y1="187.29" x2="625.19" y2="245.66" stroke="#9BE2D1" stroke-opacity="0.147" stroke-width="2"/><line x1="612.39" y1="330.93" x2="650.39" y2="345.54" stroke="#F07C63" stroke-opacity="0.158" stroke-width="2"/><line x1="633.49" y1="322.16" x2="671.49" y2="300.68" stroke="#E8C56C" stroke-opacity="0.166" stroke-width="2"/><line x1="661.61" y1="187.23" x2="699.61" y2="208.70" stroke="#9BE2D1" stroke-opacity="0.173" stroke-width="2"/><line x1="704.41" y1="329.91" x2="742.41" y2="298.50" stroke="#E8C56C" stroke-opacity="0.178" stroke-width="2"/><line x1="762.25" y1="323.25" x2="800.25" y2="322.49" stroke="#F07C63" stroke-opacity="0.180" stroke-width="2"/><line x1="828.02" y1="187.18" x2="866.02" y2="321.74" stroke="#9BE2D1" stroke-opacity="0.180" stroke-width="2"/><line x1="890.69" y1="328.87" x2="928.69" y2="311.95" stroke="#F07C63" stroke-opacity="0.178" stroke-width="2"/><line x1="940.75" y1="324.33" x2="978.75" y2="226.15" stroke="#E8C56C" stroke-opacity="0.173" stroke-width="2"/><line x1="974.97" y1="187.14" x2="1012.97" y2="281.30" stroke="#9BE2D1" stroke-opacity="0.166" stroke-width="2"/><line x1="997.95" y1="327.82" x2="1035.95" y2="338.37" stroke="#E8C56C" stroke-opacity="0.158" stroke-width="2"/><line x1="1019.91" y1="325.40" x2="1057.91" y2="235.62" stroke="#F07C63" stroke-opacity="0.147" stroke-width="2"/><line x1="1051.55" y1="187.12" x2="1089.55" y2="324.96" stroke="#9BE2D1" stroke-opacity="0.133" stroke-width="2"/><line x1="1098.77" y1="326.77" x2="1136.77" y2="328.47" stroke="#F07C63" stroke-opacity="0.118" stroke-width="2"/><line x1="1159.74" y1="326.46" x2="1197.74" y2="206.33" stroke="#E8C56C" stroke-opacity="0.100" stroke-width="2"/></g>
  <g aria-hidden="true"><polygon points="441.74,194.16 430.00,200.94 418.26,194.16 418.26,180.60 430.00,173.82 441.74,180.60" fill="#9BE2D1" fill-opacity="0.249" stroke="#9BE2D1" stroke-opacity="0.55" stroke-width="1.1"/><polygon points="503.44,337.04 494.63,342.13 485.82,337.04 485.82,326.87 494.63,321.78 503.44,326.87" fill="#E8C56C" fill-opacity="0.477" stroke="#E8C56C" stroke-opacity="0.55" stroke-width="1.1"/><polygon points="557.54,326.12 548.79,331.18 540.03,326.12 540.03,316.01 548.79,310.95 557.54,316.01" fill="#F07C63" fill-opacity="0.224" stroke="#F07C63" stroke-opacity="0.55" stroke-width="1.1"/><polygon points="607.60,199.08 587.19,210.86 566.78,199.08 566.78,175.51 587.19,163.73 607.60,175.51" fill="#9BE2D1" fill-opacity="0.474" stroke="#9BE2D1" stroke-opacity="0.55" stroke-width="1.1"/><polygon points="628.44,340.20 612.39,349.46 596.35,340.20 596.35,321.67 612.39,312.41 628.44,321.67" fill="#F07C63" fill-opacity="0.211" stroke="#F07C63" stroke-opacity="0.55" stroke-width="1.1"/><polygon points="651.69,332.67 633.49,343.18 615.28,332.67 615.28,311.65 633.49,301.14 651.69,311.65" fill="#E8C56C" fill-opacity="0.277" stroke="#E8C56C" stroke-opacity="0.55" stroke-width="1.1"/><polygon points="671.32,192.83 661.61,198.44 651.90,192.83 651.90,181.62 661.61,176.02 671.32,181.62" fill="#9BE2D1" fill-opacity="0.432" stroke="#9BE2D1" stroke-opacity="0.55" stroke-width="1.1"/><polygon points="713.86,335.37 704.41,340.83 694.95,335.37 694.95,324.45 704.41,318.99 713.86,324.45" fill="#E8C56C" fill-opacity="0.307" stroke="#E8C56C" stroke-opacity="0.55" stroke-width="1.1"/><polygon points="773.91,329.98 762.25,336.71 750.58,329.98 750.58,316.51 762.25,309.78 773.91,316.51" fill="#F07C63" fill-opacity="0.318" stroke="#F07C63" stroke-opacity="0.55" stroke-width="1.1"/><polygon points="841.17,194.77 828.02,202.36 814.88,194.77 814.88,179.59 828.02,172.00 841.17,179.59" fill="#9BE2D1" fill-opacity="0.435" stroke="#9BE2D1" stroke-opacity="0.55" stroke-width="1.1"/><polygon points="900.56,334.57 890.69,340.27 880.82,334.57 880.82,323.17 890.69,317.47 900.56,323.17" fill="#F07C63" fill-opacity="0.253" stroke="#F07C63" stroke-opacity="0.55" stroke-width="1.1"/><polygon points="955.58,332.89 940.75,341.45 925.92,332.89 925.92,315.77 940.75,307.20 955.58,315.77" fill="#E8C56C" fill-opacity="0.189" stroke="#E8C56C" stroke-opacity="0.55" stroke-width="1.1"/><polygon points="988.12,194.73 974.97,202.32 961.82,194.73 961.82,179.55 974.97,171.96 988.12,179.55" fill="#9BE2D1" fill-opacity="0.415" stroke="#9BE2D1" stroke-opacity="0.55" stroke-width="1.1"/><polygon points="1008.68,334.01 997.95,340.20 987.23,334.01 987.23,321.63 997.95,315.44 1008.68,321.63" fill="#E8C56C" fill-opacity="0.250" stroke="#E8C56C" stroke-opacity="0.55" stroke-width="1.1"/><polygon points="1038.79,336.30 1019.91,347.20 1001.03,336.30 1001.03,314.50 1019.91,303.60 1038.79,314.50" fill="#F07C63" fill-opacity="0.447" stroke="#F07C63" stroke-opacity="0.55" stroke-width="1.1"/><polygon points="1061.90,193.10 1051.55,199.07 1041.20,193.10 1041.20,181.15 1051.55,175.17 1061.90,181.15" fill="#9BE2D1" fill-opacity="0.242" stroke="#9BE2D1" stroke-opacity="0.55" stroke-width="1.1"/><polygon points="1110.56,333.57 1098.77,340.38 1086.98,333.57 1086.98,319.97 1098.77,313.16 1110.56,319.97" fill="#F07C63" fill-opacity="0.181" stroke="#F07C63" stroke-opacity="0.55" stroke-width="1.1"/><polygon points="1179.49,337.86 1159.74,349.27 1139.99,337.86 1139.99,315.06 1159.74,303.66 1179.49,315.06" fill="#E8C56C" fill-opacity="0.181" stroke="#E8C56C" stroke-opacity="0.55" stroke-width="1.1"/></g>
  <g transform="translate(420 280)">
    <polygon points="102.19,59.00 0.00,118.00 -102.19,59.00 -102.19,-59.00 -0.00,-118.00 102.19,-59.00" fill="#E8C56C" fill-opacity="0.24" stroke="#E8C56C" stroke-opacity="0.9" stroke-width="2.4"/>
    <text x="0" y="-20" text-anchor="middle" fill="#FFF7EC" font-family="ui-monospace, SFMono-Regular, Menlo, monospace" font-size="18" font-weight="500" letter-spacing="2" opacity="0.88">MASTER IDEA</text>
    <g class="semantic-callout semantic-callout--above">
    <rect x="-175.00" y="-219.00" width="350.00" height="100.00" rx="18" fill="#18141D" fill-opacity="0.88" stroke="#E8C56C" stroke-opacity="0.78" stroke-width="1.4"/>
    <text text-anchor="middle" fill="#FFF7EC" font-family="Inter, ui-sans-serif, system-ui, sans-serif" font-size="25" font-weight="400"><tspan x="0" y="-199">Reference is situated</tspan><tspan x="0" y="-163">recontextualisation</tspan></text>
  </g>
  </g>
  <g transform="translate(1180 280)">
    <polygon points="102.19,59.00 0.00,118.00 -102.19,59.00 -102.19,-59.00 -0.00,-118.00 102.19,-59.00" fill="#F07C63" fill-opacity="0.24" stroke="#F07C63" stroke-opacity="0.9" stroke-width="2.4"/>
    <text x="0" y="-20" text-anchor="middle" fill="#FFF7EC" font-family="ui-monospace, SFMono-Regular, Menlo, monospace" font-size="18" font-weight="500" letter-spacing="2" opacity="0.88">FIELD LENS</text>
    <g class="semantic-callout semantic-callout--above">
    <rect x="-162.40" y="-202.00" width="324.80" height="66.00" rx="18" fill="#18141D" fill-opacity="0.88" stroke="#F07C63" stroke-opacity="0.78" stroke-width="1.4"/>
    <text text-anchor="middle" fill="#FFF7EC" font-family="Inter, ui-sans-serif, system-ui, sans-serif" font-size="30" font-weight="400"><tspan x="0" y="-164">Provenance field</tspan></text>
  </g>
  </g>
  <g transform="translate(800 160)">
    <polygon points="62.35,36.00 0.00,72.00 -62.35,36.00 -62.35,-36.00 -0.00,-72.00 62.35,-36.00" fill="#9BE2D1" fill-opacity="0.24" stroke="#9BE2D1" stroke-opacity="0.9" stroke-width="2.4"/>
    <text x="0" y="-20" text-anchor="middle" fill="#FFF7EC" font-family="ui-monospace, SFMono-Regular, Menlo, monospace" font-size="18" font-weight="500" letter-spacing="2" opacity="0.88">ARCHIVE</text>
    <g class="semantic-callout semantic-callout--above">
    <rect x="-154.00" y="-156.00" width="308.00" height="66.00" rx="18" fill="#18141D" fill-opacity="0.88" stroke="#9BE2D1" stroke-opacity="0.78" stroke-width="1.4"/>
    <text text-anchor="middle" fill="#FFF7EC" font-family="Inter, ui-sans-serif, system-ui, sans-serif" font-size="30" font-weight="400"><tspan x="0" y="-118">studio decision</tspan></text>
  </g>
  </g>
  <g transform="translate(800 400)">
    <polygon points="62.35,36.00 0.00,72.00 -62.35,36.00 -62.35,-36.00 -0.00,-72.00 62.35,-36.00" fill="#FFF7EC" fill-opacity="0.88" stroke="#FFF7EC" stroke-opacity="0.9" stroke-width="2.4"/>
    <text x="0" y="-20" text-anchor="middle" fill="#18141D" font-family="ui-monospace, SFMono-Regular, Menlo, monospace" font-size="18" font-weight="500" letter-spacing="2" opacity="0.88">EVIDENCE</text>
    <g class="semantic-callout semantic-callout--above">
    <rect x="-137.20" y="-156.00" width="274.40" height="66.00" rx="18" fill="#FFF7EC" fill-opacity="0.88" stroke="#FFF7EC" stroke-opacity="0.78" stroke-width="1.4"/>
    <text text-anchor="middle" fill="#18141D" font-family="Inter, ui-sans-serif, system-ui, sans-serif" font-size="30" font-weight="400"><tspan x="0" y="-118">process trace</tspan></text>
  </g>
  </g>
</svg>