<?xml version="1.0" encoding="UTF-8"?>
<svg xmlns="http://www.w3.org/2000/svg" viewBox="0 0 1600 720" role="img" aria-labelledby="title-i-2-dibujo-2d-outcome desc-i-2-dibujo-2d-outcome">
  <title id="title-i-2-dibujo-2d-outcome">DC I · outcome illustration</title>
  <desc id="desc-i-2-dibujo-2d-outcome">Two vector curves expose control handles and a corrected path, encoding diagnosis and construction with geometric primitives.</desc>
  <rect width="1600" height="720" fill="#18141D"/>
  <g aria-hidden="true"><polygon points="1076.25,420.15 1069.47,424.06 1062.70,420.15 1062.70,412.33 1069.47,408.41 1076.25,412.33" fill="#9BE2D1" fill-opacity="0.045" stroke="#9BE2D1" stroke-opacity="0.175" stroke-width="1"/><polygon points="712.04,541.13 704.76,545.33 697.48,541.13 697.48,532.72 704.76,528.52 712.04,532.72" fill="#E8C56C" fill-opacity="0.059" stroke="#E8C56C" stroke-opacity="0.151" stroke-width="1"/><polygon points="1297.32,460.88 1290.39,464.88 1283.47,460.88 1283.47,452.88 1290.39,448.88 1297.32,452.88" fill="#F07C63" fill-opacity="0.026" stroke="#F07C63" stroke-opacity="0.103" stroke-width="1"/><polygon points="779.28,223.00 764.36,231.62 749.45,223.00 749.45,205.78 764.36,197.17 779.28,205.78" fill="#9BE2D1" fill-opacity="0.065" stroke="#9BE2D1" stroke-opacity="0.163" stroke-width="1"/><polygon points="1062.44,218.92 1051.78,225.07 1041.11,218.92 1041.11,206.61 1051.78,200.45 1062.44,206.61" fill="#F07C63" fill-opacity="0.045" stroke="#F07C63" stroke-opacity="0.113" stroke-width="1"/><polygon points="396.00,101.68 385.90,107.51 375.79,101.68 375.79,90.01 385.90,84.17 396.00,90.01" fill="#E8C56C" fill-opacity="0.074" stroke="#E8C56C" stroke-opacity="0.158" stroke-width="1"/><polygon points="507.92,330.54 501.12,334.46 494.32,330.54 494.32,322.69 501.12,318.76 507.92,322.69" fill="#9BE2D1" fill-opacity="0.063" stroke="#9BE2D1" stroke-opacity="0.161" stroke-width="1"/><polygon points="1319.61,71.90 1302.94,81.53 1286.26,71.90 1286.26,52.65 1302.94,43.02 1319.61,52.65" fill="#E8C56C" fill-opacity="0.042" stroke="#E8C56C" stroke-opacity="0.140" stroke-width="1"/><polygon points="151.50,498.66 139.14,505.80 126.78,498.66 126.78,484.39 139.14,477.26 151.50,484.39" fill="#F07C63" fill-opacity="0.053" stroke="#F07C63" stroke-opacity="0.114" stroke-width="1"/><polygon points="1129.54,543.76 1114.86,552.23 1100.18,543.76 1100.18,526.81 1114.86,518.34 1129.54,526.81" fill="#9BE2D1" fill-opacity="0.048" stroke="#9BE2D1" stroke-opacity="0.148" stroke-width="1"/><polygon points="253.27,436.03 246.90,439.71 240.53,436.03 240.53,428.68 246.90,425.00 253.27,428.68" fill="#F07C63" fill-opacity="0.042" stroke="#F07C63" stroke-opacity="0.197" stroke-width="1"/><polygon points="1179.43,527.14 1173.90,530.33 1168.38,527.14 1168.38,520.76 1173.90,517.57 1179.43,520.76" fill="#E8C56C" fill-opacity="0.051" stroke="#E8C56C" stroke-opacity="0.130" stroke-width="1"/><polygon points="103.54,575.76 90.58,583.24 77.62,575.76 77.62,560.80 90.58,553.31 103.54,560.80" fill="#9BE2D1" fill-opacity="0.069" stroke="#9BE2D1" stroke-opacity="0.139" stroke-width="1"/><polygon points="284.28,409.55 267.86,419.02 251.44,409.55 251.44,390.59 267.86,381.11 284.28,390.59" fill="#E8C56C" fill-opacity="0.026" stroke="#E8C56C" stroke-opacity="0.117" stroke-width="1"/><polygon points="215.95,205.77 205.75,211.66 195.55,205.77 195.55,194.00 205.75,188.11 215.95,194.00" fill="#F07C63" fill-opacity="0.040" stroke="#F07C63" stroke-opacity="0.098" stroke-width="1"/><polygon points="696.36,393.76 681.00,402.63 665.64,393.76 665.64,376.03 681.00,367.16 696.36,376.03" fill="#9BE2D1" fill-opacity="0.045" stroke="#9BE2D1" stroke-opacity="0.137" stroke-width="1"/><polygon points="1179.87,625.79 1171.53,630.61 1163.19,625.79 1163.19,616.16 1171.53,611.34 1179.87,616.16" fill="#F07C63" fill-opacity="0.070" stroke="#F07C63" stroke-opacity="0.157" stroke-width="1"/><polygon points="87.83,197.55 74.11,205.47 60.39,197.55 60.39,181.71 74.11,173.79 87.83,181.71" fill="#E8C56C" fill-opacity="0.045" stroke="#E8C56C" stroke-opacity="0.121" stroke-width="1"/><polygon points="187.35,125.98 172.93,134.30 158.51,125.98 158.51,109.33 172.93,101.01 187.35,109.33" fill="#9BE2D1" fill-opacity="0.054" stroke="#9BE2D1" stroke-opacity="0.115" stroke-width="1"/><polygon points="256.97,503.45 244.48,510.66 231.99,503.45 231.99,489.02 244.48,481.81 256.97,489.02" fill="#E8C56C" fill-opacity="0.028" stroke="#E8C56C" stroke-opacity="0.199" stroke-width="1"/><polygon points="135.77,279.20 127.25,284.12 118.73,279.20 118.73,269.36 127.25,264.44 135.77,269.36" fill="#F07C63" fill-opacity="0.043" stroke="#F07C63" stroke-opacity="0.163" stroke-width="1"/><polygon points="691.59,413.33 682.32,418.68 673.05,413.33 673.05,402.63 682.32,397.28 691.59,402.63" fill="#9BE2D1" fill-opacity="0.026" stroke="#9BE2D1" stroke-opacity="0.093" stroke-width="1"/><polygon points="1090.74,602.51 1082.86,607.06 1074.98,602.51 1074.98,593.41 1082.86,588.86 1090.74,593.41" fill="#F07C63" fill-opacity="0.035" stroke="#F07C63" stroke-opacity="0.097" stroke-width="1"/><polygon points="890.45,270.33 877.84,277.60 865.24,270.33 865.24,255.78 877.84,248.50 890.45,255.78" fill="#E8C56C" fill-opacity="0.042" stroke="#E8C56C" stroke-opacity="0.183" stroke-width="1"/><polygon points="1024.34,378.44 1018.37,381.88 1012.40,378.44 1012.40,371.54 1018.37,368.10 1024.34,371.54" fill="#9BE2D1" fill-opacity="0.076" stroke="#9BE2D1" stroke-opacity="0.178" stroke-width="1"/><polygon points="1128.37,585.97 1123.33,588.88 1118.29,585.97 1118.29,580.16 1123.33,577.25 1128.37,580.16" fill="#E8C56C" fill-opacity="0.046" stroke="#E8C56C" stroke-opacity="0.151" stroke-width="1"/><polygon points="301.18,599.29 286.57,607.72 271.97,599.29 271.97,582.42 286.57,573.99 301.18,582.42" fill="#F07C63" fill-opacity="0.051" stroke="#F07C63" stroke-opacity="0.099" stroke-width="1"/><polygon points="739.08,160.94 734.65,163.49 730.23,160.94 730.23,155.83 734.65,153.28 739.08,155.83" fill="#9BE2D1" fill-opacity="0.029" stroke="#9BE2D1" stroke-opacity="0.129" stroke-width="1"/><polygon points="1136.21,226.92 1125.14,233.32 1114.06,226.92 1114.06,214.13 1125.14,207.74 1136.21,214.13" fill="#F07C63" fill-opacity="0.035" stroke="#F07C63" stroke-opacity="0.193" stroke-width="1"/><polygon points="527.26,326.07 513.11,334.24 498.97,326.07 498.97,309.74 513.11,301.57 527.26,309.74" fill="#E8C56C" fill-opacity="0.059" stroke="#E8C56C" stroke-opacity="0.152" stroke-width="1"/><polygon points="1263.60,323.57 1246.61,333.38 1229.61,323.57 1229.61,303.94 1246.61,294.13 1263.60,303.94" fill="#9BE2D1" fill-opacity="0.061" stroke="#9BE2D1" stroke-opacity="0.092" stroke-width="1"/><polygon points="247.17,165.28 241.31,168.67 235.44,165.28 235.44,158.51 241.31,155.12 247.17,158.51" fill="#E8C56C" fill-opacity="0.053" stroke="#E8C56C" stroke-opacity="0.089" stroke-width="1"/><polygon points="1531.91,543.45 1518.55,551.17 1505.18,543.45 1505.18,528.02 1518.55,520.31 1531.91,528.02" fill="#F07C63" fill-opacity="0.053" stroke="#F07C63" stroke-opacity="0.171" stroke-width="1"/><polygon points="1230.46,278.61 1222.72,283.09 1214.97,278.61 1214.97,269.67 1222.72,265.20 1230.46,269.67" fill="#9BE2D1" fill-opacity="0.046" stroke="#9BE2D1" stroke-opacity="0.129" stroke-width="1"/><polygon points="1306.96,348.32 1298.09,353.44 1289.23,348.32 1289.23,338.08 1298.09,332.96 1306.96,338.08" fill="#F07C63" fill-opacity="0.070" stroke="#F07C63" stroke-opacity="0.083" stroke-width="1"/><polygon points="526.36,637.83 514.27,644.81 502.19,637.83 502.19,623.87 514.27,616.89 526.36,623.87" fill="#E8C56C" fill-opacity="0.047" stroke="#E8C56C" stroke-opacity="0.183" stroke-width="1"/><polygon points="421.02,340.00 409.86,346.44 398.71,340.00 398.71,327.12 409.86,320.68 421.02,327.12" fill="#9BE2D1" fill-opacity="0.045" stroke="#9BE2D1" stroke-opacity="0.196" stroke-width="1"/><polygon points="208.74,468.86 197.43,475.39 186.11,468.86 186.11,455.79 197.43,449.26 208.74,455.79" fill="#E8C56C" fill-opacity="0.064" stroke="#E8C56C" stroke-opacity="0.145" stroke-width="1"/></g>
  <g aria-hidden="true"><path d="M150 500 C330 70 530 640 730 245" fill="none" stroke="#FFF7EC" stroke-opacity="0.48" stroke-width="3" stroke-dasharray="15 12"/><line x1="150" y1="500" x2="330" y2="70" fill="none" stroke="#FFF7EC" stroke-opacity="0.25" stroke-width="1.5"/><line x1="530" y1="640" x2="730" y2="245" fill="none" stroke="#FFF7EC" stroke-opacity="0.25" stroke-width="1.5"/><circle cx="150" cy="500" r="13" fill="#18141D" stroke="#FFF7EC" stroke-opacity="0.7" stroke-width="3"/><circle cx="330" cy="70" r="13" fill="#18141D" stroke="#FFF7EC" stroke-opacity="0.7" stroke-width="3"/><circle cx="530" cy="640" r="13" fill="#18141D" stroke="#FFF7EC" stroke-opacity="0.7" stroke-width="3"/><circle cx="730" cy="245" r="13" fill="#18141D" stroke="#FFF7EC" stroke-opacity="0.7" stroke-width="3"/><path d="M870 500 C1040 390 1150 105 1450 245" fill="none" stroke="#E8C56C" stroke-opacity="0.92" stroke-width="7" stroke-linecap="round"/><line x1="870" y1="500" x2="1040" y2="390" fill="none" stroke="#F07C63" stroke-opacity="0.65" stroke-width="1.5"/><line x1="1150" y1="105" x2="1450" y2="245" fill="none" stroke="#F07C63" stroke-opacity="0.65" stroke-width="1.5"/><circle cx="870" cy="500" r="16" fill="#E8C56C" fill-opacity="0.9" stroke="#FFF7EC" stroke-opacity="0.5" stroke-width="2"/><circle cx="1040" cy="390" r="16" fill="#F07C63" fill-opacity="0.9" stroke="#FFF7EC" stroke-opacity="0.5" stroke-width="2"/><circle cx="1150" cy="105" r="16" fill="#F07C63" fill-opacity="0.9" stroke="#FFF7EC" stroke-opacity="0.5" stroke-width="2"/><circle cx="1450" cy="245" r="16" fill="#E8C56C" fill-opacity="0.9" stroke="#FFF7EC" stroke-opacity="0.5" stroke-width="2"/><polygon points="846.77,387.00 800.00,414.00 753.23,387.00 753.23,333.00 800.00,306.00 846.77,333.00" fill="#9BE2D1" fill-opacity="0.28" stroke="#9BE2D1" stroke-opacity="0.9" stroke-width="3"/></g>
  <path d="M46 82 L92 46 H1508 L1554 82 V638 L1508 674 H92 L46 638 Z" fill="none" stroke="#FFF7EC" stroke-opacity="0.16" stroke-width="2"/>
</svg>