<?xml version="1.0" encoding="UTF-8"?>
<svg xmlns="http://www.w3.org/2000/svg" viewBox="0 0 1600 720" role="img" aria-labelledby="title-ii-1-retoque-moda-outcome desc-ii-1-retoque-moda-outcome">
  <title id="title-ii-1-retoque-moda-outcome">DC II · outcome illustration</title>
  <desc id="desc-ii-1-retoque-moda-outcome">Before and after image planes remain linked by a precise audit trail, with undisclosed distortion held outside the accountable path.</desc>
  <rect width="1600" height="720" fill="#121A2E"/>
  <g aria-hidden="true"><polygon points="525.57,457.29 514.36,463.75 503.15,457.29 503.15,444.35 514.36,437.88 525.57,444.35" fill="#FF82A7" fill-opacity="0.067" stroke="#FF82A7" stroke-opacity="0.143" stroke-width="1"/><polygon points="171.61,469.26 159.32,476.36 147.04,469.26 147.04,455.08 159.32,447.99 171.61,455.08" fill="#E7FF79" fill-opacity="0.071" stroke="#E7FF79" stroke-opacity="0.199" stroke-width="1"/><polygon points="498.17,621.45 486.48,628.20 474.79,621.45 474.79,607.95 486.48,601.20 498.17,607.95" fill="#AF89FF" fill-opacity="0.026" stroke="#AF89FF" stroke-opacity="0.176" stroke-width="1"/><polygon points="1340.62,360.65 1327.78,368.06 1314.95,360.65 1314.95,345.83 1327.78,338.42 1340.62,345.83" fill="#FF82A7" fill-opacity="0.050" stroke="#FF82A7" stroke-opacity="0.100" stroke-width="1"/><polygon points="1383.78,344.80 1368.01,353.91 1352.23,344.80 1352.23,326.59 1368.01,317.48 1383.78,326.59" fill="#AF89FF" fill-opacity="0.079" stroke="#AF89FF" stroke-opacity="0.142" stroke-width="1"/><polygon points="512.06,79.10 498.07,87.18 484.07,79.10 484.07,62.94 498.07,54.87 512.06,62.94" fill="#E7FF79" fill-opacity="0.040" stroke="#E7FF79" stroke-opacity="0.081" stroke-width="1"/><polygon points="1085.82,199.54 1077.70,204.22 1069.58,199.54 1069.58,190.16 1077.70,185.48 1085.82,190.16" fill="#FF82A7" fill-opacity="0.058" stroke="#FF82A7" stroke-opacity="0.088" stroke-width="1"/><polygon points="244.70,440.71 227.60,450.58 210.49,440.71 210.49,420.95 227.60,411.08 244.70,420.95" fill="#E7FF79" fill-opacity="0.042" stroke="#E7FF79" stroke-opacity="0.178" stroke-width="1"/><polygon points="174.97,211.79 160.36,220.22 145.76,211.79 145.76,194.93 160.36,186.50 174.97,194.93" fill="#AF89FF" fill-opacity="0.040" stroke="#AF89FF" stroke-opacity="0.111" stroke-width="1"/><polygon points="858.98,339.84 850.10,344.96 841.22,339.84 841.22,329.58 850.10,324.46 858.98,329.58" fill="#FF82A7" fill-opacity="0.034" stroke="#FF82A7" stroke-opacity="0.102" stroke-width="1"/><polygon points="1357.04,185.40 1340.83,194.77 1324.61,185.40 1324.61,166.68 1340.83,157.32 1357.04,166.68" fill="#AF89FF" fill-opacity="0.062" stroke="#AF89FF" stroke-opacity="0.139" stroke-width="1"/><polygon points="763.76,528.33 755.69,532.99 747.63,528.33 747.63,519.02 755.69,514.36 763.76,519.02" fill="#E7FF79" fill-opacity="0.069" stroke="#E7FF79" stroke-opacity="0.189" stroke-width="1"/><polygon points="1327.10,438.52 1316.34,444.73 1305.58,438.52 1305.58,426.10 1316.34,419.89 1327.10,426.10" fill="#FF82A7" fill-opacity="0.071" stroke="#FF82A7" stroke-opacity="0.093" stroke-width="1"/><polygon points="1179.96,596.64 1169.67,602.59 1159.37,596.64 1159.37,584.76 1169.67,578.81 1179.96,584.76" fill="#E7FF79" fill-opacity="0.069" stroke="#E7FF79" stroke-opacity="0.094" stroke-width="1"/><polygon points="558.66,647.96 550.16,652.87 541.66,647.96 541.66,638.15 550.16,633.24 558.66,638.15" fill="#AF89FF" fill-opacity="0.046" stroke="#AF89FF" stroke-opacity="0.157" stroke-width="1"/><polygon points="406.64,134.06 395.25,140.65 383.85,134.06 383.85,120.90 395.25,114.32 406.64,120.90" fill="#FF82A7" fill-opacity="0.046" stroke="#FF82A7" stroke-opacity="0.085" stroke-width="1"/><polygon points="718.83,371.01 705.22,378.87 691.61,371.01 691.61,355.29 705.22,347.42 718.83,355.29" fill="#AF89FF" fill-opacity="0.072" stroke="#AF89FF" stroke-opacity="0.190" stroke-width="1"/><polygon points="1045.04,389.64 1032.93,396.63 1020.82,389.64 1020.82,375.66 1032.93,368.66 1045.04,375.66" fill="#E7FF79" fill-opacity="0.050" stroke="#E7FF79" stroke-opacity="0.187" stroke-width="1"/><polygon points="523.02,655.13 512.69,661.10 502.35,655.13 502.35,643.20 512.69,637.23 523.02,643.20" fill="#FF82A7" fill-opacity="0.062" stroke="#FF82A7" stroke-opacity="0.193" stroke-width="1"/><polygon points="1111.71,197.78 1100.23,204.41 1088.75,197.78 1088.75,184.52 1100.23,177.90 1111.71,184.52" fill="#E7FF79" fill-opacity="0.036" stroke="#E7FF79" stroke-opacity="0.141" stroke-width="1"/><polygon points="308.79,634.99 302.36,638.70 295.94,634.99 295.94,627.58 302.36,623.87 308.79,627.58" fill="#AF89FF" fill-opacity="0.066" stroke="#AF89FF" stroke-opacity="0.189" stroke-width="1"/><polygon points="884.02,587.36 868.54,596.30 853.05,587.36 853.05,569.48 868.54,560.54 884.02,569.48" fill="#FF82A7" fill-opacity="0.040" stroke="#FF82A7" stroke-opacity="0.192" stroke-width="1"/><polygon points="1225.36,477.84 1214.19,484.29 1203.02,477.84 1203.02,464.94 1214.19,458.49 1225.36,464.94" fill="#AF89FF" fill-opacity="0.039" stroke="#AF89FF" stroke-opacity="0.092" stroke-width="1"/><polygon points="639.75,375.03 635.26,377.63 630.76,375.03 630.76,369.84 635.26,367.24 639.75,369.84" fill="#E7FF79" fill-opacity="0.047" stroke="#E7FF79" stroke-opacity="0.195" stroke-width="1"/><polygon points="578.29,538.85 565.64,546.15 553.00,538.85 553.00,524.24 565.64,516.94 578.29,524.24" fill="#FF82A7" fill-opacity="0.051" stroke="#FF82A7" stroke-opacity="0.100" stroke-width="1"/><polygon points="1318.38,252.09 1312.21,255.66 1306.03,252.09 1306.03,244.96 1312.21,241.39 1318.38,244.96" fill="#E7FF79" fill-opacity="0.030" stroke="#E7FF79" stroke-opacity="0.194" stroke-width="1"/><polygon points="1274.54,244.16 1267.24,248.38 1259.94,244.16 1259.94,235.73 1267.24,231.51 1274.54,235.73" fill="#AF89FF" fill-opacity="0.036" stroke="#AF89FF" stroke-opacity="0.097" stroke-width="1"/><polygon points="626.20,280.51 611.48,289.01 596.77,280.51 596.77,263.52 611.48,255.02 626.20,263.52" fill="#FF82A7" fill-opacity="0.040" stroke="#FF82A7" stroke-opacity="0.177" stroke-width="1"/><polygon points="1061.89,338.76 1044.67,348.70 1027.46,338.76 1027.46,318.88 1044.67,308.93 1061.89,318.88" fill="#AF89FF" fill-opacity="0.044" stroke="#AF89FF" stroke-opacity="0.156" stroke-width="1"/><polygon points="321.16,396.22 308.02,403.81 294.88,396.22 294.88,381.05 308.02,373.46 321.16,381.05" fill="#E7FF79" fill-opacity="0.074" stroke="#E7FF79" stroke-opacity="0.195" stroke-width="1"/><polygon points="316.33,416.32 304.25,423.29 292.18,416.32 292.18,402.37 304.25,395.40 316.33,402.37" fill="#FF82A7" fill-opacity="0.079" stroke="#FF82A7" stroke-opacity="0.132" stroke-width="1"/><polygon points="1156.78,650.70 1146.76,656.49 1136.74,650.70 1136.74,639.13 1146.76,633.35 1156.78,639.13" fill="#E7FF79" fill-opacity="0.031" stroke="#E7FF79" stroke-opacity="0.104" stroke-width="1"/><polygon points="331.45,395.18 323.58,399.72 315.70,395.18 315.70,386.08 323.58,381.53 331.45,386.08" fill="#AF89FF" fill-opacity="0.025" stroke="#AF89FF" stroke-opacity="0.088" stroke-width="1"/><polygon points="415.68,467.94 398.74,477.72 381.81,467.94 381.81,448.38 398.74,438.60 415.68,448.38" fill="#FF82A7" fill-opacity="0.032" stroke="#FF82A7" stroke-opacity="0.154" stroke-width="1"/><polygon points="782.04,622.31 772.66,627.73 763.28,622.31 763.28,611.48 772.66,606.06 782.04,611.48" fill="#AF89FF" fill-opacity="0.052" stroke="#AF89FF" stroke-opacity="0.199" stroke-width="1"/><polygon points="152.31,77.42 147.22,80.36 142.13,77.42 142.13,71.54 147.22,68.60 152.31,71.54" fill="#E7FF79" fill-opacity="0.057" stroke="#E7FF79" stroke-opacity="0.194" stroke-width="1"/><polygon points="1197.36,390.41 1182.80,398.81 1168.24,390.41 1168.24,373.59 1182.80,365.19 1197.36,373.59" fill="#FF82A7" fill-opacity="0.058" stroke="#FF82A7" stroke-opacity="0.126" stroke-width="1"/><polygon points="486.54,454.46 477.28,459.81 468.01,454.46 468.01,443.76 477.28,438.41 486.54,443.76" fill="#E7FF79" fill-opacity="0.029" stroke="#E7FF79" stroke-opacity="0.081" stroke-width="1"/></g>
  <g aria-hidden="true"><rect x="170" y="120" width="500" height="420" rx="12" fill="#AF89FF" fill-opacity="0.1" stroke="#AF89FF" stroke-opacity="0.76" stroke-width="4"/><path d="M250 445 C330 250 470 220 590 390" fill="none" stroke="#AF89FF" stroke-opacity="0.72" stroke-width="18" stroke-linecap="round"/><circle cx="350" cy="240" r="54" fill="#FF82A7" fill-opacity="0.38"/><rect x="930" y="120" width="500" height="420" rx="12" fill="#E7FF79" fill-opacity="0.1" stroke="#E7FF79" stroke-opacity="0.76" stroke-width="4"/><path d="M1010 445 C1090 250 1230 220 1350 390" fill="none" stroke="#E7FF79" stroke-opacity="0.72" stroke-width="18" stroke-linecap="round"/><circle cx="1110" cy="240" r="54" fill="#FF82A7" fill-opacity="0.38"/><path d="M670 330 C755 250 845 250 930 330" fill="none" stroke="#E7FF79" stroke-opacity="0.92" stroke-width="7" stroke-linecap="round"/><circle cx="720" cy="292" r="10" fill="#F8F6ED" fill-opacity="0.86"/><circle cx="760" cy="271.9140294548134" r="10" fill="#F8F6ED" fill-opacity="0.86"/><circle cx="800" cy="264.01193911483784" r="10" fill="#F8F6ED" fill-opacity="0.86"/><circle cx="840" cy="273.0870309445678" r="10" fill="#F8F6ED" fill-opacity="0.86"/><circle cx="880" cy="293.63447601597227" r="10" fill="#F8F6ED" fill-opacity="0.86"/><path d="M800 350 C800 470 760 535 690 610" fill="none" stroke="#FF82A7" stroke-opacity="0.45" stroke-width="4" stroke-dasharray="12 10"/><line x1="635" y1="610" x2="745" y2="610" fill="none" stroke="#FF82A7" stroke-opacity="0.78" stroke-width="8" stroke-linecap="round"/><line x1="680" y1="565" x2="700" y2="650" fill="none" stroke="#FF82A7" stroke-opacity="0.78" stroke-width="8" stroke-linecap="round"/></g>
  <path d="M46 82 L92 46 H1508 L1554 82 V638 L1508 674 H92 L46 638 Z" fill="none" stroke="#F8F6ED" stroke-opacity="0.16" stroke-width="2"/>
</svg>