<svg xmlns="http://www.w3.org/2000/svg" viewBox="0 0 1600 360" role="img" aria-labelledby="title-2964547329 desc-2964547329">
  <title id="title-2964547329">Generative page artwork</title>
  <desc id="desc-2964547329">Platonic-solid, fractal, opt-art, glitch, and organic dialogue geometry for II.6 · Holograms &amp; Augmented Reality.</desc>
  <defs>
    <filter id="grain-2964547329" x="-10%" y="-10%" width="120%" height="120%">
      <feTurbulence type="fractalNoise" baseFrequency="0.99" numOctaves="2" seed="730" result="noise"/>
      <feColorMatrix in="noise" type="saturate" values="0"/>
      <feComponentTransfer><feFuncA type="table" tableValues="0 .16"/></feComponentTransfer>
    </filter>
  </defs>
  <rect width="1600" height="360" fill="#050816"/>
  <rect width="1600" height="360" fill="#97C459" opacity=".10"/>
  <g fill="none" stroke="#0C447C" stroke-width="1.2" opacity=".58"><polygon points="227.5,127.2 187.2,237.9 111.5,147.7" fill="none" stroke="#E2B127" stroke-width="1.21" opacity="0.37"/><polygon points="230.9,159.8 177.5,169.2 196.0,118.3" fill="none" stroke="#ED93B1" stroke-width="0.99" opacity="0.30"/><polygon points="218.7,168.6 202.7,149.5 227.2,145.2" fill="none" stroke="#97C459" stroke-width="0.77" opacity="0.23"/><polygon points="212.4,165.8 216.3,155.0 223.6,163.8" fill="none" stroke="#0C447C" stroke-width="0.55" opacity="0.16"/><polygon points="203.7,155.3 209.5,145.4 215.1,155.3" fill="none" stroke="#0C447C" stroke-width="0.55" opacity="0.16"/><polygon points="215.4,152.0 222.9,143.3 226.7,154.1" fill="none" stroke="#0C447C" stroke-width="0.55" opacity="0.16"/><polygon points="189.4,173.5 177.1,151.9 202.0,152.0" fill="none" stroke="#97C459" stroke-width="0.77" opacity="0.23"/><polygon points="183.7,169.6 189.5,159.7 195.2,169.7" fill="none" stroke="#0C447C" stroke-width="0.55" opacity="0.16"/><polygon points="177.0,157.7 184.5,149.0 188.3,159.8" fill="none" stroke="#0C447C" stroke-width="0.55" opacity="0.16"/><polygon points="189.2,156.6 198.1,149.4 199.9,160.7" fill="none" stroke="#0C447C" stroke-width="0.55" opacity="0.16"/><polygon points="196.1,147.8 187.8,124.3 212.3,128.9" fill="none" stroke="#97C459" stroke-width="0.77" opacity="0.23"/><polygon points="191.2,143.0 198.7,134.3 202.5,145.1" fill="none" stroke="#0C447C" stroke-width="0.55" opacity="0.16"/><polygon points="186.8,130.1 195.7,122.8 197.5,134.2" fill="none" stroke="#0C447C" stroke-width="0.55" opacity="0.16"/><polygon points="198.9,131.2 209.0,125.7 208.7,137.1" fill="none" stroke="#0C447C" stroke-width="0.55" opacity="0.16"/><polygon points="208.3,220.2 154.1,219.9 181.5,173.2" fill="none" stroke="#ED93B1" stroke-width="0.99" opacity="0.30"/><polygon points="194.8,226.7 182.4,205.1 207.3,205.2" fill="none" stroke="#97C459" stroke-width="0.77" opacity="0.23"/><polygon points="189.0,222.8 194.8,212.9 200.5,222.9" fill="none" stroke="#0C447C" stroke-width="0.55" opacity="0.16"/><polygon points="182.4,210.9 189.8,202.2 193.6,213.0" fill="none" stroke="#0C447C" stroke-width="0.55" opacity="0.16"/><polygon points="194.5,209.8 203.4,202.6 205.3,213.9" fill="none" stroke="#0C447C" stroke-width="0.55" opacity="0.16"/><polygon points="165.1,226.3 156.8,202.8 181.3,207.4" fill="none" stroke="#97C459" stroke-width="0.77" opacity="0.23"/><polygon points="160.2,221.5 167.6,212.8 171.4,223.6" fill="none" stroke="#0C447C" stroke-width="0.55" opacity="0.16"/><polygon points="155.7,208.6 164.6,201.3 166.4,212.7" fill="none" stroke="#0C447C" stroke-width="0.55" opacity="0.16"/><polygon points="167.9,209.7 178.0,204.2 177.7,215.6" fill="none" stroke="#0C447C" stroke-width="0.55" opacity="0.16"/><polygon points="176.3,202.2 172.3,177.6 195.6,186.5" fill="none" stroke="#97C459" stroke-width="0.77" opacity="0.23"/><polygon points="172.3,196.6 181.2,189.3 183.0,200.7" fill="none" stroke="#0C447C" stroke-width="0.55" opacity="0.16"/><polygon points="170.3,183.1 180.3,177.6 180.1,189.0" fill="none" stroke="#0C447C" stroke-width="0.55" opacity="0.16"/><polygon points="182.0,186.3 192.9,182.7 190.6,194.0" fill="none" stroke="#0C447C" stroke-width="0.55" opacity="0.16"/><polygon points="167.2,179.7 114.0,169.7 149.2,128.6" fill="none" stroke="#ED93B1" stroke-width="0.99" opacity="0.30"/><polygon points="152.7,183.7 144.4,160.1 168.9,164.7" fill="none" stroke="#97C459" stroke-width="0.77" opacity="0.23"/><polygon points="147.8,178.8 155.2,170.1 159.0,180.9" fill="none" stroke="#0C447C" stroke-width="0.55" opacity="0.16"/><polygon points="143.3,165.9 152.2,158.6 154.1,170.0" fill="none" stroke="#0C447C" stroke-width="0.55" opacity="0.16"/><polygon points="155.5,167.0 165.6,161.5 165.3,172.9" fill="none" stroke="#0C447C" stroke-width="0.55" opacity="0.16"/><polygon points="123.6,178.0 119.6,153.3 142.9,162.2" fill="none" stroke="#97C459" stroke-width="0.77" opacity="0.23"/><polygon points="119.6,172.3 128.5,165.1 130.3,176.4" fill="none" stroke="#0C447C" stroke-width="0.55" opacity="0.16"/><polygon points="117.6,158.8 127.6,153.3 127.4,164.7" fill="none" stroke="#0C447C" stroke-width="0.55" opacity="0.16"/><polygon points="129.3,162.1 140.2,158.4 137.9,169.7" fill="none" stroke="#0C447C" stroke-width="0.55" opacity="0.16"/><polygon points="138.9,156.3 139.4,131.3 160.7,144.3" fill="none" stroke="#97C459" stroke-width="0.77" opacity="0.23"/><polygon points="136.0,150.0 146.1,144.4 145.8,155.9" fill="none" stroke="#0C447C" stroke-width="0.55" opacity="0.16"/><polygon points="136.4,136.3 147.3,132.7 145.0,143.9" fill="none" stroke="#0C447C" stroke-width="0.55" opacity="0.16"/><polygon points="147.4,141.6 158.8,140.0 154.5,150.7" fill="none" stroke="#0C447C" stroke-width="0.55" opacity="0.16"/><polygon points="474.6,333.2 359.6,212.3 521.8,173.2" fill="none" stroke="#E2B127" stroke-width="1.21" opacity="0.37"/><polygon points="431.2,316.9 452.9,243.3 505.8,298.9" fill="none" stroke="#ED93B1" stroke-width="0.99" opacity="0.30"/><polygon points="427.7,295.9 462.0,287.6 452.0,321.5" fill="none" stroke="#97C459" stroke-width="0.77" opacity="0.23"/><polygon points="435.3,289.6 446.4,301.4 430.7,305.2" fill="none" stroke="#0C447C" stroke-width="0.55" opacity="0.16"/><polygon points="454.1,285.3 463.0,298.8 446.8,299.8" fill="none" stroke="#0C447C" stroke-width="0.55" opacity="0.16"/><polygon points="450.8,302.2 457.1,317.2 441.0,315.2" fill="none" stroke="#0C447C" stroke-width="0.55" opacity="0.16"/><polygon points="439.9,255.7 475.1,253.7 459.2,285.2" fill="none" stroke="#97C459" stroke-width="0.77" opacity="0.23"/><polygon points="448.4,250.9 457.4,264.5 441.1,265.4" fill="none" stroke="#0C447C" stroke-width="0.55" opacity="0.16"/><polygon points="467.8,249.9 474.1,264.9 458.0,262.9" fill="none" stroke="#0C447C" stroke-width="0.55" opacity="0.16"/><polygon points="461.5,266.1 465.0,281.9 449.5,277.1" fill="none" stroke="#0C447C" stroke-width="0.55" opacity="0.16"/><polygon points="468.3,280.4 503.3,284.7 482.0,312.9" fill="none" stroke="#97C459" stroke-width="0.77" opacity="0.23"/><polygon points="477.5,277.2 483.9,292.1 467.8,290.2" fill="none" stroke="#0C447C" stroke-width="0.55" opacity="0.16"/><polygon points="496.7,279.7 500.3,295.6 484.8,290.7" fill="none" stroke="#0C447C" stroke-width="0.55" opacity="0.16"/><polygon points="487.6,294.4 488.3,310.7 473.9,303.1" fill="none" stroke="#0C447C" stroke-width="0.55" opacity="0.16"/><polygon points="368.7,250.2 403.3,181.7 445.4,245.9" fill="none" stroke="#ED93B1" stroke-width="0.99" opacity="0.30"/><polygon points="369.0,228.9 404.3,226.9 388.4,258.4" fill="none" stroke="#97C459" stroke-width="0.77" opacity="0.23"/><polygon points="377.6,224.1 386.5,237.7 370.3,238.6" fill="none" stroke="#0C447C" stroke-width="0.55" opacity="0.16"/><polygon points="396.9,223.2 403.3,238.1 387.1,236.1" fill="none" stroke="#0C447C" stroke-width="0.55" opacity="0.16"/><polygon points="390.6,239.3 394.2,255.2 378.7,250.3" fill="none" stroke="#0C447C" stroke-width="0.55" opacity="0.16"/><polygon points="388.3,191.5 423.3,195.9 402.0,224.0" fill="none" stroke="#97C459" stroke-width="0.77" opacity="0.23"/><polygon points="397.5,188.4 403.9,203.3 387.8,201.3" fill="none" stroke="#0C447C" stroke-width="0.55" opacity="0.16"/><polygon points="416.7,190.9 420.3,206.7 404.8,201.9" fill="none" stroke="#0C447C" stroke-width="0.55" opacity="0.16"/><polygon points="407.6,205.6 408.3,221.8 393.9,214.3" fill="none" stroke="#0C447C" stroke-width="0.55" opacity="0.16"/><polygon points="411.8,220.9 445.5,231.4 419.5,255.4" fill="none" stroke="#97C459" stroke-width="0.77" opacity="0.23"/><polygon points="421.5,219.5 425.0,235.3 409.5,230.5" fill="none" stroke="#0C447C" stroke-width="0.55" opacity="0.16"/><polygon points="439.9,225.4 440.5,241.6 426.1,234.1" fill="none" stroke="#0C447C" stroke-width="0.55" opacity="0.16"/><polygon points="428.3,238.2 426.0,254.3 413.2,244.3" fill="none" stroke="#0C447C" stroke-width="0.55" opacity="0.16"/><polygon points="446.1,223.6 492.3,162.4 522.2,233.1" fill="none" stroke="#ED93B1" stroke-width="0.99" opacity="0.30"/><polygon points="450.2,202.7 485.2,207.0 464.0,235.2" fill="none" stroke="#97C459" stroke-width="0.77" opacity="0.23"/><polygon points="459.5,199.5 465.8,214.5 449.7,212.5" fill="none" stroke="#0C447C" stroke-width="0.55" opacity="0.16"/><polygon points="478.7,202.1 482.2,217.9 466.7,213.1" fill="none" stroke="#0C447C" stroke-width="0.55" opacity="0.16"/><polygon points="469.6,216.8 470.2,233.0 455.8,225.5" fill="none" stroke="#0C447C" stroke-width="0.55" opacity="0.16"/><polygon points="475.8,169.4 509.5,179.9 483.5,203.8" fill="none" stroke="#97C459" stroke-width="0.77" opacity="0.23"/><polygon points="485.5,167.9 489.0,183.8 473.5,178.9" fill="none" stroke="#0C447C" stroke-width="0.55" opacity="0.16"/><polygon points="503.9,173.8 504.5,190.1 490.2,182.5" fill="none" stroke="#0C447C" stroke-width="0.55" opacity="0.16"/><polygon points="492.3,186.7 490.1,202.8 477.3,192.8" fill="none" stroke="#0C447C" stroke-width="0.55" opacity="0.16"/><polygon points="493.7,202.5 524.9,218.9 495.1,237.8" fill="none" stroke="#97C459" stroke-width="0.77" opacity="0.23"/><polygon points="503.5,202.8 504.1,219.0 489.7,211.5" fill="none" stroke="#0C447C" stroke-width="0.55" opacity="0.16"/><polygon points="520.5,211.9 518.2,228.0 505.5,218.0" fill="none" stroke="#0C447C" stroke-width="0.55" opacity="0.16"/><polygon points="506.8,222.5 501.7,237.9 490.9,225.8" fill="none" stroke="#0C447C" stroke-width="0.55" opacity="0.16"/><polygon points="679.2,236.2 781.2,166.3 790.8,289.6" fill="none" stroke="#E2B127" stroke-width="1.21" opacity="0.37"/><polygon points="696.3,206.4 747.6,230.9 700.7,263.1" fill="none" stroke="#ED93B1" stroke-width="0.99" opacity="0.30"/><polygon points="712.1,206.3 714.1,232.4 690.5,221.1" fill="none" stroke="#97C459" stroke-width="0.77" opacity="0.23"/><polygon points="715.7,212.5 705.8,219.4 704.9,207.4" fill="none" stroke="#0C447C" stroke-width="0.55" opacity="0.16"/><polygon points="716.7,226.8 705.7,231.8 707.0,219.8" fill="none" stroke="#0C447C" stroke-width="0.55" opacity="0.16"/><polygon points="704.7,222.4 693.0,225.3 696.4,213.7" fill="none" stroke="#0C447C" stroke-width="0.55" opacity="0.16"/><polygon points="740.1,219.9 737.4,246.0 716.2,230.6" fill="none" stroke="#97C459" stroke-width="0.77" opacity="0.23"/><polygon points="742.5,226.8 731.6,231.7 732.8,219.7" fill="none" stroke="#0C447C" stroke-width="0.55" opacity="0.16"/><polygon points="741.0,241.0 729.3,243.9 732.6,232.3" fill="none" stroke="#0C447C" stroke-width="0.55" opacity="0.16"/><polygon points="729.9,234.5 717.9,235.2 723.3,224.5" fill="none" stroke="#0C447C" stroke-width="0.55" opacity="0.16"/><polygon points="718.6,237.8 711.3,262.9 693.2,244.0" fill="none" stroke="#97C459" stroke-width="0.77" opacity="0.23"/><polygon points="719.9,245.0 708.2,247.8 711.5,236.3" fill="none" stroke="#0C447C" stroke-width="0.55" opacity="0.16"/><polygon points="715.8,258.7 703.7,259.4 709.1,248.7" fill="none" stroke="#0C447C" stroke-width="0.55" opacity="0.16"/><polygon points="706.0,250.3 694.1,248.9 701.3,239.3" fill="none" stroke="#0C447C" stroke-width="0.55" opacity="0.16"/><polygon points="752.4,168.5 798.5,201.9 746.6,225.1" fill="none" stroke="#ED93B1" stroke-width="0.99" opacity="0.30"/><polygon points="768.0,171.3 765.3,197.3 744.1,181.9" fill="none" stroke="#97C459" stroke-width="0.77" opacity="0.23"/><polygon points="770.5,178.1 759.5,183.0 760.7,171.0" fill="none" stroke="#0C447C" stroke-width="0.55" opacity="0.16"/><polygon points="768.9,192.3 757.2,195.2 760.6,183.6" fill="none" stroke="#0C447C" stroke-width="0.55" opacity="0.16"/><polygon points="757.8,185.8 745.8,186.6 751.2,175.8" fill="none" stroke="#0C447C" stroke-width="0.55" opacity="0.16"/><polygon points="793.1,189.7 785.8,214.8 767.7,196.0" fill="none" stroke="#97C459" stroke-width="0.77" opacity="0.23"/><polygon points="794.3,196.9 782.6,199.7 786.0,188.2" fill="none" stroke="#0C447C" stroke-width="0.55" opacity="0.16"/><polygon points="790.2,210.6 778.2,211.3 783.6,200.6" fill="none" stroke="#0C447C" stroke-width="0.55" opacity="0.16"/><polygon points="780.5,202.2 768.5,200.8 775.7,191.2" fill="none" stroke="#0C447C" stroke-width="0.55" opacity="0.16"/><polygon points="768.8,203.5 757.1,226.9 742.7,205.0" fill="none" stroke="#97C459" stroke-width="0.77" opacity="0.23"/><polygon points="768.7,210.7 756.7,211.5 762.1,200.7" fill="none" stroke="#0C447C" stroke-width="0.55" opacity="0.16"/><polygon points="762.2,223.5 750.3,222.1 757.5,212.4" fill="none" stroke="#0C447C" stroke-width="0.55" opacity="0.16"/><polygon points="754.2,213.5 742.7,210.0 751.5,201.8" fill="none" stroke="#0C447C" stroke-width="0.55" opacity="0.16"/><polygon points="762.8,228.2 802.2,269.3 746.9,282.9" fill="none" stroke="#ED93B1" stroke-width="0.99" opacity="0.30"/><polygon points="777.6,233.7 770.3,258.9 752.2,240.0" fill="none" stroke="#97C459" stroke-width="0.77" opacity="0.23"/><polygon points="778.8,240.9 767.1,243.8 770.5,232.2" fill="none" stroke="#0C447C" stroke-width="0.55" opacity="0.16"/><polygon points="774.7,254.6 762.7,255.4 768.1,244.6" fill="none" stroke="#0C447C" stroke-width="0.55" opacity="0.16"/><polygon points="765.0,246.2 753.0,244.8 760.3,235.2" fill="none" stroke="#0C447C" stroke-width="0.55" opacity="0.16"/><polygon points="799.0,256.4 787.3,279.8 772.9,258.0" fill="none" stroke="#97C459" stroke-width="0.77" opacity="0.23"/><polygon points="798.9,263.7 786.9,264.4 792.3,253.6" fill="none" stroke="#0C447C" stroke-width="0.55" opacity="0.16"/><polygon points="792.4,276.4 780.5,275.0 787.7,265.4" fill="none" stroke="#0C447C" stroke-width="0.55" opacity="0.16"/><polygon points="784.3,266.4 772.8,262.9 781.7,254.7" fill="none" stroke="#0C447C" stroke-width="0.55" opacity="0.16"/><polygon points="772.6,265.6 757.0,286.5 746.7,262.4" fill="none" stroke="#97C459" stroke-width="0.77" opacity="0.23"/><polygon points="771.3,272.7 759.3,271.3 766.5,261.6" fill="none" stroke="#0C447C" stroke-width="0.55" opacity="0.16"/><polygon points="762.6,284.1 751.1,280.6 759.9,272.4" fill="none" stroke="#0C447C" stroke-width="0.55" opacity="0.16"/><polygon points="756.4,272.8 745.8,267.3 755.9,260.8" fill="none" stroke="#0C447C" stroke-width="0.55" opacity="0.16"/><polygon points="918.9,183.5 1032.8,52.5 1089.3,216.6" fill="none" stroke="#E2B127" stroke-width="1.21" opacity="0.37"/><polygon points="931.5,136.9 1009.9,152.2 957.5,212.4" fill="none" stroke="#ED93B1" stroke-width="0.99" opacity="0.30"/><polygon points="953.0,131.2 964.9,166.0 928.9,159.0" fill="none" stroke="#97C459" stroke-width="0.77" opacity="0.23"/><polygon points="960.1,138.5 949.1,151.2 943.6,135.2" fill="none" stroke="#0C447C" stroke-width="0.55" opacity="0.16"/><polygon points="966.5,157.5 953.4,168.1 950.8,151.4" fill="none" stroke="#0C447C" stroke-width="0.55" opacity="0.16"/><polygon points="948.6,155.8 933.8,163.8 934.3,146.9" fill="none" stroke="#0C447C" stroke-width="0.55" opacity="0.16"/><polygon points="995.8,139.9 1001.3,176.2 967.1,162.9" fill="none" stroke="#97C459" stroke-width="0.77" opacity="0.23"/><polygon points="1001.6,148.3 988.4,158.9 985.8,142.2" fill="none" stroke="#0C447C" stroke-width="0.55" opacity="0.16"/><polygon points="1004.5,168.2 989.6,176.2 990.1,159.4" fill="none" stroke="#0C447C" stroke-width="0.55" opacity="0.16"/><polygon points="987.1,163.3 971.1,168.5 974.6,152.0" fill="none" stroke="#0C447C" stroke-width="0.55" opacity="0.16"/><polygon points="973.0,171.7 972.0,208.4 940.7,189.2" fill="none" stroke="#97C459" stroke-width="0.77" opacity="0.23"/><polygon points="977.2,181.0 962.4,189.1 962.8,172.2" fill="none" stroke="#0C447C" stroke-width="0.55" opacity="0.16"/><polygon points="976.5,201.1 960.4,206.4 963.9,189.8" fill="none" stroke="#0C447C" stroke-width="0.55" opacity="0.16"/><polygon points="960.3,193.2 943.6,195.5 950.0,179.8" fill="none" stroke="#0C447C" stroke-width="0.55" opacity="0.16"/><polygon points="994.4,65.7 1068.8,94.7 1006.5,144.6" fill="none" stroke="#ED93B1" stroke-width="0.99" opacity="0.30"/><polygon points="1016.5,63.9 1022.1,100.2 987.8,86.9" fill="none" stroke="#97C459" stroke-width="0.77" opacity="0.23"/><polygon points="1022.3,72.3 1009.1,82.9 1006.6,66.2" fill="none" stroke="#0C447C" stroke-width="0.55" opacity="0.16"/><polygon points="1025.2,92.2 1010.3,100.3 1010.8,83.4" fill="none" stroke="#0C447C" stroke-width="0.55" opacity="0.16"/><polygon points="1007.9,87.3 991.8,92.6 995.3,76.0" fill="none" stroke="#0C447C" stroke-width="0.55" opacity="0.16"/><polygon points="1057.1,80.1 1056.1,116.8 1024.8,97.6" fill="none" stroke="#97C459" stroke-width="0.77" opacity="0.23"/><polygon points="1061.3,89.4 1046.4,97.5 1046.9,80.6" fill="none" stroke="#0C447C" stroke-width="0.55" opacity="0.16"/><polygon points="1060.6,109.5 1044.5,114.8 1048.0,98.3" fill="none" stroke="#0C447C" stroke-width="0.55" opacity="0.16"/><polygon points="1044.4,101.6 1027.7,103.9 1034.1,88.2" fill="none" stroke="#0C447C" stroke-width="0.55" opacity="0.16"/><polygon points="1029.0,107.4 1021.4,143.3 994.1,118.8" fill="none" stroke="#97C459" stroke-width="0.77" opacity="0.23"/><polygon points="1031.5,117.3 1015.4,122.5 1018.9,106.0" fill="none" stroke="#0C447C" stroke-width="0.55" opacity="0.16"/><polygon points="1027.1,136.9 1010.4,139.2 1016.8,123.6" fill="none" stroke="#0C447C" stroke-width="0.55" opacity="0.16"/><polygon points="1012.7,126.2 995.8,125.4 1004.9,111.2" fill="none" stroke="#0C447C" stroke-width="0.55" opacity="0.16"/><polygon points="1029.6,143.2 1097.5,185.0 1027.3,222.9" fill="none" stroke="#ED93B1" stroke-width="0.99" opacity="0.30"/><polygon points="1051.6,145.4 1050.6,182.1 1019.3,162.8" fill="none" stroke="#97C459" stroke-width="0.77" opacity="0.23"/><polygon points="1055.8,154.7 1041.0,162.7 1041.4,145.8" fill="none" stroke="#0C447C" stroke-width="0.55" opacity="0.16"/><polygon points="1055.1,174.8 1039.0,180.0 1042.5,163.5" fill="none" stroke="#0C447C" stroke-width="0.55" opacity="0.16"/><polygon points="1038.9,166.8 1022.2,169.1 1028.6,153.5" fill="none" stroke="#0C447C" stroke-width="0.55" opacity="0.16"/><polygon points="1088.7,168.6 1081.1,204.5 1053.8,180.0" fill="none" stroke="#97C459" stroke-width="0.77" opacity="0.23"/><polygon points="1091.1,178.5 1075.1,183.7 1078.6,167.2" fill="none" stroke="#0C447C" stroke-width="0.55" opacity="0.16"/><polygon points="1086.8,198.1 1070.1,200.4 1076.5,184.8" fill="none" stroke="#0C447C" stroke-width="0.55" opacity="0.16"/><polygon points="1072.3,187.4 1055.5,186.7 1064.6,172.4" fill="none" stroke="#0C447C" stroke-width="0.55" opacity="0.16"/><polygon points="1056.1,190.3 1042.2,224.3 1019.8,195.3" fill="none" stroke="#97C459" stroke-width="0.77" opacity="0.23"/><polygon points="1056.8,200.5 1040.1,202.8 1046.4,187.2" fill="none" stroke="#0C447C" stroke-width="0.55" opacity="0.16"/><polygon points="1049.0,219.1 1032.2,218.3 1041.2,204.1" fill="none" stroke="#0C447C" stroke-width="0.55" opacity="0.16"/><polygon points="1036.7,205.9 1020.3,202.2 1031.7,189.8" fill="none" stroke="#0C447C" stroke-width="0.55" opacity="0.16"/><polygon points="1385.4,258.7 1222.3,176.4 1375.1,76.3" fill="none" stroke="#E2B127" stroke-width="1.21" opacity="0.37"/><polygon points="1334.7,257.9 1329.9,174.0 1404.9,211.8" fill="none" stroke="#ED93B1" stroke-width="0.99" opacity="0.30"/><polygon points="1323.3,237.5 1355.6,216.3 1357.8,254.9" fill="none" stroke="#97C459" stroke-width="0.77" opacity="0.23"/><polygon points="1328.8,228.3 1344.7,236.3 1329.8,246.0" fill="none" stroke="#0C447C" stroke-width="0.55" opacity="0.16"/><polygon points="1346.6,216.8 1360.8,227.5 1344.4,234.4" fill="none" stroke="#0C447C" stroke-width="0.55" opacity="0.16"/><polygon points="1349.5,235.5 1361.5,248.6 1344.1,252.5" fill="none" stroke="#0C447C" stroke-width="0.55" opacity="0.16"/><polygon points="1321.1,191.5 1356.7,176.5 1351.9,214.8" fill="none" stroke="#97C459" stroke-width="0.77" opacity="0.23"/><polygon points="1328.1,183.4 1342.3,194.2 1326.0,201.1" fill="none" stroke="#0C447C" stroke-width="0.55" opacity="0.16"/><polygon points="1347.7,175.3 1359.7,188.4 1342.4,192.3" fill="none" stroke="#0C447C" stroke-width="0.55" opacity="0.16"/><polygon points="1347.2,194.3 1356.7,209.3 1338.9,210.0" fill="none" stroke="#0C447C" stroke-width="0.55" opacity="0.16"/><polygon points="1359.4,206.5 1397.2,198.1 1385.6,235.0" fill="none" stroke="#97C459" stroke-width="0.77" opacity="0.23"/><polygon points="1367.8,199.8 1379.9,212.9 1362.5,216.8" fill="none" stroke="#0C447C" stroke-width="0.55" opacity="0.16"/><polygon points="1388.5,195.4 1398.0,210.4 1380.3,211.1" fill="none" stroke="#0C447C" stroke-width="0.55" opacity="0.16"/><polygon points="1384.6,213.9 1391.2,230.4 1373.6,227.9" fill="none" stroke="#0C447C" stroke-width="0.55" opacity="0.16"/><polygon points="1245.7,212.1 1256.1,128.7 1323.1,179.4" fill="none" stroke="#ED93B1" stroke-width="0.99" opacity="0.30"/><polygon points="1238.2,190.0 1273.8,175.0 1269.0,213.3" fill="none" stroke="#97C459" stroke-width="0.77" opacity="0.23"/><polygon points="1245.3,181.9 1259.5,192.7 1243.1,199.6" fill="none" stroke="#0C447C" stroke-width="0.55" opacity="0.16"/><polygon points="1264.8,173.8 1276.9,186.9 1259.5,190.8" fill="none" stroke="#0C447C" stroke-width="0.55" opacity="0.16"/><polygon points="1264.3,192.8 1273.8,207.8 1256.0,208.5" fill="none" stroke="#0C447C" stroke-width="0.55" opacity="0.16"/><polygon points="1244.2,144.4 1282.0,136.0 1270.4,172.9" fill="none" stroke="#97C459" stroke-width="0.77" opacity="0.23"/><polygon points="1252.6,137.7 1264.7,150.8 1247.3,154.7" fill="none" stroke="#0C447C" stroke-width="0.55" opacity="0.16"/><polygon points="1273.3,133.3 1282.8,148.3 1265.1,149.0" fill="none" stroke="#0C447C" stroke-width="0.55" opacity="0.16"/><polygon points="1269.4,151.8 1276.0,168.3 1258.4,165.8" fill="none" stroke="#0C447C" stroke-width="0.55" opacity="0.16"/><polygon points="1279.3,166.0 1317.9,164.5 1299.9,198.7" fill="none" stroke="#97C459" stroke-width="0.77" opacity="0.23"/><polygon points="1288.8,161.0 1298.3,176.0 1280.5,176.7" fill="none" stroke="#0C447C" stroke-width="0.55" opacity="0.16"/><polygon points="1309.9,160.3 1316.6,176.8 1299.0,174.3" fill="none" stroke="#0C447C" stroke-width="0.55" opacity="0.16"/><polygon points="1302.7,177.8 1306.3,195.2 1289.4,189.6" fill="none" stroke="#0C447C" stroke-width="0.55" opacity="0.16"/><polygon points="1315.7,156.2 1340.8,76.0 1397.7,137.9" fill="none" stroke="#ED93B1" stroke-width="0.99" opacity="0.30"/><polygon points="1312.2,133.1 1349.9,124.7 1338.4,161.6" fill="none" stroke="#97C459" stroke-width="0.77" opacity="0.23"/><polygon points="1320.6,126.4 1332.7,139.5 1315.3,143.4" fill="none" stroke="#0C447C" stroke-width="0.55" opacity="0.16"/><polygon points="1341.3,122.0 1350.8,137.0 1333.0,137.7" fill="none" stroke="#0C447C" stroke-width="0.55" opacity="0.16"/><polygon points="1337.4,140.5 1344.0,157.0 1326.4,154.5" fill="none" stroke="#0C447C" stroke-width="0.55" opacity="0.16"/><polygon points="1326.3,89.3 1364.9,87.8 1347.0,122.0" fill="none" stroke="#97C459" stroke-width="0.77" opacity="0.23"/><polygon points="1335.8,84.3 1345.3,99.3 1327.5,100.0" fill="none" stroke="#0C447C" stroke-width="0.55" opacity="0.16"/><polygon points="1356.9,83.6 1363.6,100.1 1346.0,97.6" fill="none" stroke="#0C447C" stroke-width="0.55" opacity="0.16"/><polygon points="1349.8,101.1 1353.3,118.5 1336.5,112.9" fill="none" stroke="#0C447C" stroke-width="0.55" opacity="0.16"/><polygon points="1356.9,116.9 1395.2,122.3 1371.4,152.7" fill="none" stroke="#97C459" stroke-width="0.77" opacity="0.23"/><polygon points="1367.2,113.6 1373.8,130.1 1356.2,127.6" fill="none" stroke="#0C447C" stroke-width="0.55" opacity="0.16"/><polygon points="1388.1,116.7 1391.7,134.1 1374.8,128.5" fill="none" stroke="#0C447C" stroke-width="0.55" opacity="0.16"/><polygon points="1377.9,132.7 1378.3,150.4 1362.7,141.9" fill="none" stroke="#0C447C" stroke-width="0.55" opacity="0.16"/></g>
  <path d="M70 252.3485 C353.15999999999997 74.268, 515.288 320.096, 731.952 243.38400000000001 S1211.528 141.99200000000002, 1510 250.1552" fill="none" stroke="#97C459" stroke-width="7" stroke-linecap="round" opacity=".34"/>
  <path d="M70 252.3485 C353.15999999999997 74.268, 515.288 320.096, 731.952 243.38400000000001 S1211.528 141.99200000000002, 1510 250.1552" fill="none" stroke="#ED93B1" stroke-width="1.1" stroke-dasharray="11 16" stroke-linecap="round" opacity=".78"/>
  <g stroke="#E2B127" stroke-width="2.2" fill="none" opacity=".74" transform="rotate(-0.47 1128.4 217.5)"><polygon points="1198.9,307.1 1167.8,324.5 1132.8,331.4 1097.4,327.2 1065.0,312.2 1038.9,288.0 1021.5,256.9 1014.6,221.9 1018.8,186.5 1033.7,154.1 1058.0,128.0 1089.1,110.6 1124.1,103.7 1159.5,107.9 1191.8,122.8 1218.0,147.1 1235.4,178.2 1242.3,213.2 1238.1,248.6 1223.1,280.9"/><polygon points="1157.3,269.3 1139.9,275.7 1121.4,276.4 1103.6,271.3 1088.2,261.0 1076.7,246.5 1070.3,229.1 1069.6,210.5 1074.6,192.7 1085.0,177.3 1099.5,165.8 1116.9,159.4 1135.5,158.7 1153.3,163.8 1168.7,174.1 1180.2,188.6 1186.6,206.0 1187.3,224.6 1182.2,242.4 1171.9,257.8"/><line x1="1198.9" y1="307.1" x2="1157.3" y2="269.3"/><line x1="1157.3" y1="269.3" x2="1167.8" y2="324.5"/><line x1="1167.8" y1="324.5" x2="1139.9" y2="275.7"/><line x1="1139.9" y1="275.7" x2="1132.8" y2="331.4"/><line x1="1132.8" y1="331.4" x2="1121.4" y2="276.4"/><line x1="1121.4" y1="276.4" x2="1097.4" y2="327.2"/><line x1="1097.4" y1="327.2" x2="1103.6" y2="271.3"/><line x1="1103.6" y1="271.3" x2="1065.0" y2="312.2"/><line x1="1065.0" y1="312.2" x2="1088.2" y2="261.0"/><line x1="1088.2" y1="261.0" x2="1038.9" y2="288.0"/><line x1="1038.9" y1="288.0" x2="1076.7" y2="246.5"/><line x1="1076.7" y1="246.5" x2="1021.5" y2="256.9"/><line x1="1021.5" y1="256.9" x2="1070.3" y2="229.1"/><line x1="1070.3" y1="229.1" x2="1014.6" y2="221.9"/><line x1="1014.6" y1="221.9" x2="1069.6" y2="210.5"/><line x1="1069.6" y1="210.5" x2="1018.8" y2="186.5"/><line x1="1018.8" y1="186.5" x2="1074.6" y2="192.7"/><line x1="1074.6" y1="192.7" x2="1033.7" y2="154.1"/><line x1="1033.7" y1="154.1" x2="1085.0" y2="177.3"/><line x1="1085.0" y1="177.3" x2="1058.0" y2="128.0"/><line x1="1058.0" y1="128.0" x2="1099.5" y2="165.8"/><line x1="1099.5" y1="165.8" x2="1089.1" y2="110.6"/><line x1="1089.1" y1="110.6" x2="1116.9" y2="159.4"/><line x1="1116.9" y1="159.4" x2="1124.1" y2="103.7"/><line x1="1124.1" y1="103.7" x2="1135.5" y2="158.7"/><line x1="1135.5" y1="158.7" x2="1159.5" y2="107.9"/><line x1="1159.5" y1="107.9" x2="1153.3" y2="163.8"/><line x1="1153.3" y1="163.8" x2="1191.8" y2="122.8"/><line x1="1191.8" y1="122.8" x2="1168.7" y2="174.1"/><line x1="1168.7" y1="174.1" x2="1218.0" y2="147.1"/><line x1="1218.0" y1="147.1" x2="1180.2" y2="188.6"/><line x1="1180.2" y1="188.6" x2="1235.4" y2="178.2"/><line x1="1235.4" y1="178.2" x2="1186.6" y2="206.0"/><line x1="1186.6" y1="206.0" x2="1242.3" y2="213.2"/><line x1="1242.3" y1="213.2" x2="1187.3" y2="224.6"/><line x1="1187.3" y1="224.6" x2="1238.1" y2="248.6"/><line x1="1238.1" y1="248.6" x2="1182.2" y2="242.4"/><line x1="1182.2" y1="242.4" x2="1223.1" y2="280.9"/><line x1="1223.1" y1="280.9" x2="1171.9" y2="257.8"/><line x1="1171.9" y1="257.8" x2="1198.9" y2="307.1"/></g>
  <g><polygon points="154.7,144.8 129.1,144.1 121.6,120.1 138.8,105.2 154.5,108.5" fill="#97C459" opacity="0.31"/><polygon points="273.5,142.6 257.7,153.4 242.9,149.7 238.9,119.6 245.5,114.3 272.4,121.0" fill="#ED93B1" opacity="0.22"/><polygon points="405.8,228.3 397.6,233.3 375.4,233.6 356.9,213.8 360.0,189.7 405.0,181.5 405.3,181.8" fill="#E2B127" opacity="0.21"/><polygon points="571.8,284.2 547.1,302.0 524.5,284.2 530.8,260.1 562.6,257.6" fill="#0C447C" opacity="0.21"/><polygon points="738.3,297.8 722.3,302.0 712.0,296.5 712.4,269.3 716.5,266.3 738.7,268.8" fill="#97C459" opacity="0.17"/><polygon points="917.2,219.7 894.0,244.9 872.3,240.1 860.5,218.9 875.4,191.9 904.1,192.9 911.8,200.2" fill="#ED93B1" opacity="0.29"/><polygon points="1040.6,152.7 1009.0,160.2 997.3,142.1 1005.8,121.6 1035.5,121.3" fill="#E2B127" opacity="0.30"/><polygon points="1149.1,133.9 1141.1,140.2 1117.0,132.0 1114.6,120.7 1137.8,103.9 1151.9,117.0" fill="#0C447C" opacity="0.23"/><polygon points="1284.0,195.4 1269.5,209.1 1235.5,203.1 1227.1,188.4 1247.5,152.0 1257.7,150.5 1287.4,178.6" fill="#97C459" opacity="0.30"/><polygon points="1426.7,265.3 1404.6,277.1 1394.1,262.5 1409.0,245.2 1424.6,252.8" fill="#ED93B1" opacity="0.28"/></g>
  <g><rect x="113.4" y="304.1" width="53.0" height="3.3" fill="#0C447C" opacity="0.21"/><rect x="193.2" y="76.2" width="90.9" height="6.1" fill="#97C459" opacity="0.28"/><rect x="294.2" y="76.0" width="36.1" height="9.8" fill="#ED93B1" opacity="0.28"/><rect x="406.6" y="244.7" width="39.3" height="11.9" fill="#E2B127" opacity="0.31"/><rect x="529.7" y="37.5" width="137.4" height="3.4" fill="#0C447C" opacity="0.14"/><rect x="602.6" y="221.1" width="116.4" height="4.6" fill="#97C459" opacity="0.21"/><rect x="740.5" y="72.9" width="141.8" height="13.0" fill="#ED93B1" opacity="0.27"/><rect x="812.9" y="315.8" width="45.6" height="12.2" fill="#E2B127" opacity="0.14"/><rect x="947.9" y="304.5" width="103.6" height="4.9" fill="#0C447C" opacity="0.21"/><rect x="1041.4" y="311.4" width="31.7" height="5.8" fill="#97C459" opacity="0.17"/><rect x="1151.2" y="133.4" width="115.7" height="7.8" fill="#ED93B1" opacity="0.12"/><rect x="1244.8" y="274.8" width="107.6" height="8.9" fill="#E2B127" opacity="0.18"/><rect x="1329.2" y="259.3" width="101.2" height="14.4" fill="#0C447C" opacity="0.15"/><rect x="1461.3" y="151.4" width="47.6" height="10.6" fill="#97C459" opacity="0.17"/></g>
  <rect width="1600" height="360" filter="url(#grain-2964547329)" opacity=".85"/>
</svg>
